<svg width="734" height="497" viewBox="0 0 734 497" fill="none" xmlns="http://www.w3.org/2000/svg">
<g clip-path="url(#clip0_195_20)">
<path d="M694.02 495.042C695.739 476.552 700.484 458.468 708.068 441.515C710.182 436.797 712.508 432.183 715.047 427.672C715.175 427.436 715.205 427.16 715.133 426.902C715.06 426.644 714.891 426.424 714.659 426.289C714.427 426.154 714.152 426.114 713.892 426.177C713.631 426.241 713.406 426.403 713.262 426.63C704.028 443.057 697.559 460.89 694.114 479.414C693.156 484.587 692.435 489.796 691.953 495.042C691.83 496.365 693.899 496.357 694.02 495.042Z" fill="#F2F2F2"/>
<path d="M720.055 430.985C727.286 430.985 733.149 425.128 733.149 417.902C733.149 410.676 727.286 404.819 720.055 404.819C712.824 404.819 706.961 410.676 706.961 417.902C706.961 425.128 712.824 430.985 720.055 430.985Z" fill="#F2F2F2"/>
<path d="M695.36 495.39C696.475 483.394 699.553 471.663 704.473 460.664C705.845 457.603 707.354 454.61 709.001 451.684C709.084 451.531 709.104 451.351 709.057 451.184C709.01 451.016 708.9 450.874 708.749 450.786C708.599 450.698 708.42 450.672 708.251 450.713C708.082 450.755 707.936 450.86 707.843 451.007C701.852 461.665 697.656 473.233 695.421 485.251C694.799 488.607 694.331 491.986 694.019 495.39C693.939 496.248 695.281 496.243 695.36 495.39Z" fill="#F2F2F2"/>
<path d="M712.25 453.833C716.941 453.833 720.744 450.033 720.744 445.345C720.744 440.658 716.941 436.858 712.25 436.858C707.558 436.858 703.755 440.658 703.755 445.345C703.755 450.033 707.558 453.833 712.25 453.833Z" fill="#F2F2F2"/>
<path d="M693.667 494.588C687.162 484.445 682.368 473.303 679.478 461.607C678.675 458.351 678.022 455.063 677.52 451.743C677.491 451.572 677.396 451.419 677.256 451.315C677.116 451.212 676.941 451.168 676.769 451.191C676.596 451.214 676.44 451.303 676.332 451.44C676.224 451.576 676.173 451.749 676.19 451.922C678.027 464.007 681.839 475.708 687.474 486.557C689.05 489.585 690.761 492.537 692.61 495.413C693.075 496.138 694.13 495.31 693.667 494.588Z" fill="#F2F2F2"/>
<path d="M676.179 453.237C680.871 453.237 684.674 449.437 684.674 444.749C684.674 440.062 680.871 436.262 676.179 436.262C671.488 436.262 667.685 440.062 667.685 444.749C667.685 449.437 671.488 453.237 676.179 453.237Z" fill="#F2F2F2"/>
<path d="M145.668 495.042C143.95 476.552 139.204 458.468 131.62 441.515C129.507 436.797 127.18 432.183 124.641 427.672C124.514 427.436 124.483 427.16 124.556 426.902C124.628 426.644 124.798 426.424 125.03 426.289C125.261 426.154 125.536 426.114 125.797 426.177C126.057 426.241 126.283 426.403 126.426 426.63C135.66 443.057 142.129 460.89 145.575 479.414C146.533 484.587 147.253 489.796 147.736 495.042C147.858 496.365 145.79 496.357 145.668 495.042Z" fill="#F2F2F2"/>
<path d="M119.634 430.985C126.865 430.985 132.727 425.128 132.727 417.902C132.727 410.676 126.865 404.819 119.634 404.819C112.402 404.819 106.54 410.676 106.54 417.902C106.54 425.128 112.402 430.985 119.634 430.985Z" fill="#F2F2F2"/>
<path d="M144.329 495.39C143.214 483.394 140.135 471.663 135.215 460.664C133.844 457.603 132.335 454.61 130.688 451.684C130.605 451.531 130.585 451.351 130.632 451.184C130.679 451.016 130.789 450.874 130.939 450.786C131.09 450.698 131.268 450.672 131.437 450.713C131.607 450.755 131.753 450.86 131.846 451.007C137.836 461.665 142.033 473.233 144.268 485.251C144.89 488.607 145.357 491.986 145.67 495.39C145.75 496.248 144.408 496.243 144.329 495.39Z" fill="#F2F2F2"/>
<path d="M127.439 453.833C132.131 453.833 135.934 450.033 135.934 445.345C135.934 440.658 132.131 436.858 127.439 436.858C122.748 436.858 118.945 440.658 118.945 445.345C118.945 450.033 122.748 453.833 127.439 453.833Z" fill="#F2F2F2"/>
<path d="M146.022 494.588C152.527 484.445 157.32 473.303 160.211 461.607C161.014 458.351 161.667 455.063 162.169 451.743C162.198 451.572 162.293 451.419 162.433 451.315C162.573 451.212 162.748 451.168 162.92 451.191C163.093 451.214 163.249 451.303 163.357 451.44C163.465 451.576 163.516 451.749 163.499 451.922C161.662 464.007 157.85 475.708 152.215 486.557C150.639 489.585 148.928 492.537 147.079 495.413C146.614 496.138 145.559 495.31 146.022 494.588Z" fill="#F2F2F2"/>
<path d="M163.509 453.237C168.201 453.237 172.004 449.437 172.004 444.749C172.004 440.062 168.201 436.262 163.509 436.262C158.818 436.262 155.015 440.062 155.015 444.749C155.015 449.437 158.818 453.237 163.509 453.237Z" fill="#F2F2F2"/>
<path d="M644.807 324.008L645.011 477.834C645.012 480.69 643.88 483.429 641.862 485.451C639.844 487.474 637.105 488.614 634.248 488.621L570.299 488.715C588.301 455.065 598.494 402.101 598.434 361.276C598.418 345.164 596.78 329.095 593.545 313.312L634.012 313.252C636.87 313.252 639.611 314.383 641.635 316.4C643.659 318.416 644.8 321.152 644.807 324.008Z" fill="#CD76FF"/>
<path d="M732.982 497H101.944C101.675 496.999 101.417 496.892 101.226 496.701C101.036 496.51 100.929 496.252 100.929 495.983C100.929 495.714 101.036 495.456 101.226 495.265C101.417 495.074 101.675 494.967 101.944 494.966H732.982C733.252 494.966 733.511 495.073 733.702 495.264C733.893 495.455 734 495.713 734 495.983C734 496.253 733.893 496.511 733.702 496.702C733.511 496.893 733.252 497 732.982 497Z" fill="#3F3D56"/>
<path d="M551.097 302.983L437.129 302.537L448.212 265.695C449.096 262.801 450.885 260.265 453.315 258.46C455.746 256.654 458.691 255.673 461.719 255.66H461.773L526.822 255.915C529.86 255.94 532.81 256.939 535.237 258.765C537.664 260.591 539.44 263.147 540.305 266.057L551.097 302.983Z" fill="#3F3D56"/>
<path d="M614.722 290.376C611.548 290.376 608.504 291.636 606.26 293.878C604.016 296.121 602.755 299.162 602.755 302.333H626.688C626.688 299.162 625.427 296.121 623.183 293.878C620.939 291.636 617.895 290.376 614.722 290.376Z" fill="#CD76FF"/>
<path d="M651.475 496.202H336.936C333.084 496.198 329.39 494.667 326.666 491.945C323.942 489.223 322.41 485.532 322.406 481.683V315.998C322.41 312.149 323.942 308.458 326.666 305.736C329.39 303.014 333.084 301.483 336.936 301.479H651.475C655.327 301.483 659.02 303.014 661.744 305.736C664.468 308.458 666.001 312.149 666.005 315.998V481.683C666.001 485.532 664.468 489.223 661.744 491.945C659.02 494.667 655.327 496.198 651.475 496.202ZM336.936 303.187C333.537 303.191 330.278 304.542 327.875 306.944C325.471 309.345 324.119 312.601 324.115 315.998V481.683C324.119 485.08 325.471 488.336 327.875 490.737C330.278 493.139 333.537 494.49 336.936 494.494H651.475C654.874 494.49 658.133 493.139 660.536 490.737C662.94 488.336 664.292 485.08 664.296 481.683V315.998C664.292 312.601 662.94 309.345 660.536 306.944C658.133 304.542 654.874 303.191 651.475 303.187H336.936Z" fill="#3F3D56"/>
<path d="M507.881 289.095H480.53C478.603 289.095 476.755 288.33 475.393 286.969C474.03 285.608 473.265 283.761 473.265 281.836C473.265 279.911 474.03 278.064 475.393 276.703C476.755 275.341 478.603 274.576 480.53 274.576H507.881C509.808 274.576 511.656 275.341 513.018 276.703C514.381 278.064 515.146 279.911 515.146 281.836C515.146 283.761 514.381 285.608 513.018 286.969C511.656 288.33 509.808 289.095 507.881 289.095Z" fill="white"/>
<path d="M494.205 463.748C481.358 463.748 468.799 459.941 458.116 452.809C447.434 445.677 439.108 435.54 434.191 423.68C429.275 411.819 427.988 398.769 430.495 386.178C433.001 373.587 439.188 362.021 448.272 352.944C457.357 343.866 468.932 337.685 481.533 335.18C494.133 332.676 507.195 333.961 519.064 338.874C530.934 343.786 541.079 352.106 548.217 362.78C555.355 373.454 559.165 386.003 559.165 398.841C559.145 416.049 552.295 432.547 540.117 444.716C527.939 456.884 511.428 463.729 494.205 463.748ZM494.205 335.641C481.696 335.641 469.467 339.348 459.066 346.292C448.664 353.236 440.558 363.107 435.77 374.655C430.983 386.203 429.731 398.911 432.171 411.17C434.612 423.43 440.636 434.691 449.481 443.529C458.327 452.368 469.597 458.387 481.866 460.826C494.135 463.264 506.853 462.013 518.41 457.229C529.967 452.446 539.846 444.345 546.796 433.952C553.746 423.559 557.455 411.34 557.455 398.841C557.436 382.085 550.766 366.021 538.909 354.173C527.051 342.325 510.974 335.66 494.205 335.641Z" fill="#3F3D56"/>
<path d="M494.206 441.543C485.753 441.543 477.49 439.038 470.462 434.346C463.435 429.654 457.957 422.985 454.722 415.182C451.488 407.379 450.641 398.793 452.29 390.51C453.939 382.226 458.01 374.617 463.986 368.645C469.963 362.673 477.578 358.606 485.868 356.959C494.158 355.311 502.751 356.157 510.56 359.389C518.369 362.621 525.043 368.094 529.739 375.116C534.435 382.139 536.942 390.395 536.942 398.84C536.929 410.162 532.422 421.016 524.41 429.022C516.399 437.027 505.536 441.53 494.206 441.543ZM494.206 357.846C486.091 357.846 478.159 360.25 471.412 364.755C464.665 369.259 459.407 375.662 456.302 383.153C453.196 390.643 452.384 398.886 453.967 406.838C455.55 414.79 459.457 422.095 465.195 427.828C470.933 433.561 478.243 437.465 486.202 439.047C494.16 440.629 502.409 439.817 509.906 436.714C517.402 433.611 523.81 428.357 528.318 421.616C532.826 414.874 535.232 406.948 535.232 398.84C535.22 387.972 530.894 377.552 523.202 369.867C515.511 362.181 505.083 357.858 494.206 357.846Z" fill="#3F3D56"/>
<path d="M494.206 431.294C512.144 431.294 526.685 416.764 526.685 398.84C526.685 380.917 512.144 366.387 494.206 366.387C476.268 366.387 461.726 380.917 461.726 398.84C461.726 416.764 476.268 431.294 494.206 431.294Z" fill="#CCCCCC"/>
<path d="M474.547 398.84C474.547 393.696 476.407 388.725 479.783 384.841C483.16 380.957 487.826 378.422 492.923 377.702C489.894 377.271 486.806 377.496 483.871 378.361C480.936 379.226 478.221 380.711 475.909 382.715C473.598 384.719 471.745 387.196 470.474 389.978C469.204 392.76 468.547 395.783 468.547 398.84C468.547 401.898 469.204 404.921 470.474 407.703C471.745 410.485 473.598 412.962 475.909 414.966C478.221 416.97 480.936 418.455 483.871 419.32C486.806 420.185 489.894 420.409 492.923 419.979C487.826 419.259 483.16 416.723 479.783 412.84C476.407 408.956 474.547 403.985 474.547 398.84Z" fill="white"/>
<path d="M636.09 303.187H593.354V302.333C593.354 296.67 595.605 291.24 599.612 287.235C603.619 283.231 609.054 280.982 614.722 280.982C620.389 280.982 625.824 283.231 629.831 287.235C633.838 291.24 636.09 296.67 636.09 302.333V303.187ZM595.081 301.479H634.362C634.141 296.422 631.976 291.645 628.317 288.145C624.658 284.644 619.787 282.69 614.722 282.69C609.656 282.69 604.786 284.644 601.126 288.145C597.467 291.645 595.302 296.422 595.081 301.479Z" fill="#3F3D56"/>
<path d="M343.774 327.1C342.084 327.1 340.431 326.599 339.025 325.661C337.62 324.723 336.524 323.389 335.877 321.828C335.23 320.268 335.061 318.55 335.391 316.894C335.721 315.237 336.535 313.715 337.73 312.521C338.926 311.326 340.449 310.513 342.107 310.184C343.765 309.854 345.483 310.023 347.045 310.67C348.607 311.316 349.942 312.411 350.881 313.815C351.82 315.22 352.321 316.871 352.321 318.56C352.319 320.824 351.417 322.995 349.815 324.596C348.213 326.197 346.04 327.098 343.774 327.1ZM343.774 311.728C342.422 311.728 341.1 312.128 339.975 312.879C338.851 313.63 337.974 314.697 337.457 315.945C336.939 317.194 336.804 318.567 337.068 319.893C337.331 321.218 337.983 322.436 338.939 323.391C339.895 324.347 341.114 324.997 342.44 325.261C343.766 325.525 345.141 325.389 346.391 324.872C347.64 324.355 348.708 323.479 349.459 322.356C350.211 321.232 350.612 319.911 350.612 318.56C350.61 316.748 349.889 315.012 348.607 313.731C347.325 312.45 345.587 311.73 343.774 311.728Z" fill="#3F3D56"/>
<path d="M343.774 322.83C346.134 322.83 348.047 320.918 348.047 318.56C348.047 316.202 346.134 314.29 343.774 314.29C341.414 314.29 339.5 316.202 339.5 318.56C339.5 320.918 341.414 322.83 343.774 322.83Z" fill="#CD76FF"/>
<path d="M365.997 322.83C368.357 322.83 370.27 320.918 370.27 318.56C370.27 316.202 368.357 314.29 365.997 314.29C363.637 314.29 361.723 316.202 361.723 318.56C361.723 320.918 363.637 322.83 365.997 322.83Z" fill="#CCCCCC"/>
<path d="M388.22 322.83C390.58 322.83 392.493 320.918 392.493 318.56C392.493 316.202 390.58 314.29 388.22 314.29C385.859 314.29 383.946 316.202 383.946 318.56C383.946 320.918 385.859 322.83 388.22 322.83Z" fill="#CCCCCC"/>
<path d="M365.997 327.1C364.306 327.1 362.654 326.599 361.248 325.661C359.843 324.723 358.747 323.389 358.1 321.828C357.453 320.268 357.284 318.55 357.614 316.894C357.944 315.237 358.758 313.715 359.953 312.521C361.148 311.326 362.671 310.513 364.329 310.184C365.987 309.854 367.706 310.023 369.268 310.67C370.829 311.316 372.164 312.411 373.104 313.815C374.043 315.22 374.544 316.871 374.544 318.56C374.541 320.824 373.64 322.995 372.038 324.596C370.435 326.197 368.263 327.098 365.997 327.1ZM365.997 311.728C364.644 311.728 363.322 312.128 362.198 312.879C361.073 313.63 360.197 314.697 359.679 315.945C359.162 317.194 359.026 318.567 359.29 319.893C359.554 321.218 360.205 322.436 361.162 323.391C362.118 324.347 363.336 324.997 364.663 325.261C365.989 325.525 367.364 325.389 368.613 324.872C369.863 324.355 370.931 323.479 371.682 322.356C372.433 321.232 372.835 319.911 372.835 318.56C372.832 316.748 372.111 315.012 370.829 313.731C369.548 312.45 367.81 311.73 365.997 311.728Z" fill="#3F3D56"/>
<path d="M388.22 327.1C386.529 327.1 384.877 326.599 383.471 325.661C382.065 324.723 380.97 323.389 380.323 321.828C379.676 320.268 379.507 318.55 379.837 316.894C380.166 315.237 380.98 313.715 382.176 312.521C383.371 311.326 384.894 310.513 386.552 310.184C388.21 309.854 389.929 310.023 391.49 310.67C393.052 311.316 394.387 312.411 395.326 313.815C396.266 315.22 396.767 316.871 396.767 318.56C396.764 320.824 395.863 322.995 394.261 324.596C392.658 326.197 390.486 327.098 388.22 327.1ZM388.22 311.728C386.867 311.728 385.545 312.128 384.421 312.879C383.296 313.63 382.42 314.697 381.902 315.945C381.385 317.194 381.249 318.567 381.513 319.893C381.777 321.218 382.428 322.436 383.385 323.391C384.341 324.347 385.559 324.997 386.886 325.261C388.212 325.525 389.587 325.389 390.836 324.872C392.086 324.355 393.154 323.479 393.905 322.356C394.656 321.232 395.057 319.911 395.057 318.56C395.055 316.748 394.334 315.012 393.052 313.731C391.771 312.45 390.032 311.73 388.22 311.728Z" fill="#3F3D56"/>
<path d="M434.375 375.674H323.26V377.382H434.375V375.674Z" fill="#3F3D56"/>
<path d="M431.615 410.051H323.26V411.759H431.615V410.051Z" fill="#3F3D56"/>
<path d="M665.15 375.674H554.036V377.382H665.15V375.674Z" fill="#3F3D56"/>
<path d="M664.955 410.051H556.6V411.759H664.955V410.051Z" fill="#3F3D56"/>
<path d="M233.191 207.087C226.26 203.905 221.704 194.808 221.963 185.837C222.223 176.865 226.947 168.475 233.464 164.197C236.641 162.163 240.274 160.949 244.036 160.665C247.799 160.381 251.573 161.035 255.02 162.569C262.014 165.544 271.404 166.354 275.608 173.748C278.838 179.43 277.674 192.105 275.387 198.423C273.41 203.884 268.576 206.961 263.863 208.683C258.645 210.571 253.083 211.318 247.551 210.873C242.02 210.428 236.649 208.801 231.801 206.102" fill="#2F2E41"/>
<path d="M190.929 485.703L180.964 482.464L188.726 442.517L203.433 447.298L190.929 485.703Z" fill="#FFB8B8"/>
<path d="M174.773 477.305L193.991 483.552L190.054 495.643L158.737 485.462C159.254 483.875 160.078 482.404 161.164 481.135C162.25 479.866 163.575 478.823 165.064 478.065C166.553 477.308 168.177 476.851 169.843 476.72C171.509 476.59 173.184 476.789 174.773 477.305Z" fill="#2F2E41"/>
<path d="M280.136 485.92L269.657 485.919L264.672 445.533L280.138 445.534L280.136 485.92Z" fill="#FFB8B8"/>
<path d="M262.172 482.928H282.381V495.642H249.448C249.448 493.972 249.777 492.319 250.417 490.776C251.056 489.234 251.993 487.832 253.175 486.652C254.356 485.471 255.759 484.534 257.303 483.895C258.847 483.256 260.501 482.928 262.172 482.928Z" fill="#2F2E41"/>
<path d="M279.609 469.401C279.546 469.401 279.482 469.4 279.419 469.396L267.807 468.843C266.829 468.795 265.907 468.377 265.226 467.674C264.546 466.971 264.159 466.035 264.144 465.058L262.571 350.281C262.567 349.997 262.468 349.722 262.29 349.499C262.112 349.277 261.865 349.12 261.588 349.054C261.311 348.987 261.02 349.015 260.76 349.132C260.5 349.25 260.287 349.45 260.155 349.702L198.65 466.229C198.268 466.958 197.661 467.546 196.918 467.903C196.176 468.26 195.337 468.368 194.528 468.211L182.972 466.012C182.427 465.908 181.912 465.688 181.461 465.367C181.009 465.046 180.633 464.632 180.356 464.152C180.08 463.672 179.911 463.138 179.861 462.586C179.811 462.035 179.88 461.479 180.064 460.957L224.878 334.087L228.326 296.557C228.403 295.682 228.779 294.86 229.392 294.23C230.005 293.6 230.817 293.2 231.69 293.099C244.748 291.496 262.993 280.805 270.232 276.283C270.676 276.003 271.173 275.818 271.693 275.74C272.212 275.662 272.742 275.692 273.249 275.829C273.762 275.967 274.241 276.208 274.657 276.538C275.073 276.868 275.418 277.279 275.669 277.747C293.105 310.125 299.774 347.21 294.709 383.629L283.413 466.078C283.291 467 282.838 467.845 282.138 468.457C281.438 469.068 280.539 469.404 279.609 469.401Z" fill="#2F2E41"/>
<path d="M248.352 215.902C259.946 215.902 269.345 206.51 269.345 194.925C269.345 183.34 259.946 173.949 248.352 173.949C236.758 173.949 227.359 183.34 227.359 194.925C227.359 206.51 236.758 215.902 248.352 215.902Z" fill="#FFB8B8"/>
<path d="M227.435 305.568L221.114 260.436C219.575 253.579 220.824 246.391 224.586 240.453C228.349 234.515 234.317 230.312 241.179 228.769C248.041 227.226 255.235 228.468 261.181 232.222C267.127 235.977 271.337 241.936 272.888 248.792C274.688 257.134 278.345 267.29 277.009 278.239C267.648 304.201 250.653 312.206 227.435 305.568Z" fill="#B3B3B3"/>
<path d="M255.214 235.536H239.829C238.809 235.535 237.831 235.13 237.11 234.409C236.389 233.689 235.984 232.712 235.982 231.693V226.569C235.984 225.55 236.389 224.573 237.11 223.852C237.831 223.132 238.809 222.727 239.829 222.726H255.214C256.233 222.727 257.211 223.132 257.932 223.852C258.653 224.573 259.059 225.55 259.06 226.569V231.693C259.059 232.712 258.653 233.689 257.932 234.409C257.211 235.13 256.233 235.535 255.214 235.536Z" fill="#B3B3B3"/>
<path d="M333.185 320.84C333.602 319.566 333.735 318.215 333.573 316.883C333.412 315.552 332.96 314.272 332.25 313.134C331.539 311.995 330.588 311.027 329.463 310.296C328.337 309.564 327.065 309.089 325.736 308.902L277.846 240.395L263.646 254.423L315.185 317.352C315.019 319.604 315.686 321.839 317.059 323.633C318.432 325.426 320.416 326.655 322.634 327.085C324.853 327.515 327.152 327.116 329.097 325.966C331.041 324.815 332.496 322.991 333.185 320.84Z" fill="#FFB8B8"/>
<path d="M292.827 261.353L275.533 272.889C275.041 273.217 274.484 273.435 273.899 273.529C273.315 273.623 272.718 273.589 272.148 273.432C271.578 273.274 271.048 272.995 270.595 272.614C270.143 272.233 269.778 271.76 269.525 271.225L260.666 252.498C259.001 249.973 258.406 246.891 259.011 243.928C259.616 240.966 261.372 238.363 263.894 236.692C266.415 235.02 269.498 234.416 272.465 235.011C275.432 235.606 278.042 237.352 279.722 239.867L293.593 255.171C293.99 255.609 294.288 256.128 294.467 256.691C294.645 257.255 294.7 257.85 294.627 258.437C294.554 259.024 294.356 259.588 294.045 260.091C293.734 260.594 293.319 261.025 292.827 261.353Z" fill="#B3B3B3"/>
<path d="M164.005 228.791C164.109 229.252 164.178 229.721 164.209 230.192L200.926 251.357L209.85 246.224L219.365 258.669L204.449 269.291C203.244 270.149 201.793 270.594 200.314 270.558C198.835 270.522 197.407 270.007 196.245 269.091L158.384 239.246C156.675 239.878 154.815 239.975 153.049 239.525C151.284 239.074 149.698 238.097 148.502 236.724C147.306 235.351 146.556 233.646 146.353 231.837C146.15 230.028 146.503 228.2 147.366 226.596C148.228 224.992 149.558 223.689 151.18 222.859C152.802 222.029 154.638 221.712 156.444 221.951C158.25 222.189 159.941 222.971 161.292 224.193C162.642 225.415 163.589 227.019 164.005 228.791Z" fill="#FFB8B8"/>
<path d="M211.598 266.736L202.372 248.116C202.11 247.587 201.965 247.006 201.947 246.416C201.929 245.825 202.039 245.237 202.269 244.692C202.499 244.148 202.843 243.659 203.279 243.259C203.715 242.86 204.232 242.559 204.795 242.377L224.521 236.006C227.241 234.679 230.377 234.485 233.241 235.465C236.105 236.445 238.463 238.52 239.798 241.234C241.133 243.949 241.336 247.082 240.363 249.946C239.39 252.81 237.32 255.172 234.607 256.513L217.635 268.291C217.149 268.628 216.596 268.856 216.014 268.961C215.431 269.065 214.833 269.042 214.26 268.895C213.687 268.747 213.153 268.478 212.694 268.106C212.234 267.733 211.861 267.266 211.598 266.736Z" fill="#B3B3B3"/>
<path d="M262.44 168.507C263.196 168.617 263.967 168.475 264.634 168.103C265.301 167.731 265.827 167.15 266.13 166.449C266.41 165.739 266.523 164.975 266.462 164.214C266.4 163.454 266.165 162.717 265.775 162.061C264.98 160.755 263.87 159.667 262.547 158.899C261.024 157.881 259.262 157.276 257.435 157.141C256.523 157.081 255.609 157.218 254.754 157.542C253.9 157.866 253.125 158.37 252.482 159.019C251.856 159.685 251.442 160.522 251.294 161.424C251.146 162.326 251.27 163.251 251.652 164.082C252.42 165.561 254.03 166.39 255.6 166.953C258.713 168.068 262.029 168.503 265.324 168.23" fill="#2F2E41"/>
<path d="M269.153 204.476C265.483 204.648 266.115 196.869 264.967 193.382C263.819 189.896 262.236 185.737 258.624 185.069C255.664 184.521 252.989 186.684 250.411 188.236C245.815 191.003 239.867 192.024 235.042 189.68C230.216 187.336 227.282 181.073 229.629 176.252C230.344 174.927 231.323 173.762 232.506 172.831C233.69 171.899 235.052 171.22 236.509 170.836C239.429 170.086 242.472 169.94 245.451 170.407C252.096 171.221 258.482 173.483 264.157 177.032C268.073 179.486 271.8 182.828 272.966 187.298C274.132 191.767 274.607 203.922 270.049 204.691L269.153 204.476Z" fill="#2F2E41"/>
<path d="M259.553 157.687C256.781 154.176 257.825 148.645 261.056 145.55C264.286 142.455 269.09 141.491 273.547 141.884C277.964 142.329 282.186 143.926 285.791 146.515C289.395 149.105 292.254 152.596 294.082 156.638C296.899 163.077 296.876 170.442 299.423 176.992C300.781 180.483 302.84 183.66 305.474 186.327C308.107 188.993 311.258 191.093 314.734 192.497C318.21 193.9 321.937 194.578 325.685 194.488C329.433 194.398 333.122 193.543 336.527 191.974C340.961 189.931 345.184 185.931 344.931 181.058C347.734 191.858 342.685 204.213 333.116 209.965C327.511 213.334 320.874 214.478 314.381 215.265C310.149 215.778 305.8 216.159 301.671 215.103C295.894 213.624 291.057 209.364 288.128 204.173C285.199 198.982 284.047 192.933 284.002 186.974C283.967 182.332 284.575 177.688 284.254 173.057C283.933 168.426 282.539 163.636 279.18 160.429C275.82 157.223 270.151 156.168 266.464 158.992C264.982 160.127 263.896 161.784 262.227 162.622C260.559 163.459 257.923 162.808 257.811 160.946L259.553 157.687Z" fill="#2F2E41"/>
<path d="M179.118 228.941H5.9706C4.38766 228.939 2.87009 228.31 1.75078 227.192C0.631471 226.074 0.00183684 224.557 0 222.975V125.533C0.0018391 123.951 0.631471 122.435 1.75078 121.316C2.87009 120.198 4.38766 119.569 5.9706 119.567H179.118C180.701 119.569 182.219 120.198 183.338 121.316C184.458 122.435 185.087 123.951 185.089 125.533V222.975C185.087 224.557 184.458 226.074 183.338 227.192C182.219 228.31 180.701 228.94 179.118 228.941ZM5.9706 120.893C4.73941 120.894 3.55905 121.383 2.68846 122.253C1.81788 123.123 1.32818 124.302 1.3268 125.533V222.975C1.32818 224.206 1.81788 225.385 2.68846 226.255C3.55905 227.125 4.73941 227.614 5.9706 227.616H179.118C180.35 227.614 181.53 227.125 182.4 226.255C183.271 225.385 183.761 224.206 183.762 222.975V125.533C183.761 124.302 183.271 123.123 182.4 122.253C181.53 121.383 180.35 120.894 179.118 120.893H5.9706Z" fill="#3F3D56"/>
<path d="M63.051 187.969C76.725 187.969 87.8099 176.893 87.8099 163.23C87.8099 149.567 76.725 138.49 63.051 138.49C49.377 138.49 38.292 149.567 38.292 163.23C38.292 176.893 49.377 187.969 63.051 187.969Z" fill="#E6E6E6"/>
<path d="M158.458 206.915L129.395 156.616C129.213 156.302 128.952 156.041 128.637 155.859C128.322 155.678 127.965 155.582 127.602 155.582C127.239 155.582 126.882 155.678 126.567 155.859C126.253 156.041 125.991 156.302 125.81 156.616L108.073 187.312L81.6319 141.55C81.399 141.147 81.064 140.813 80.6606 140.58C80.2572 140.347 79.7996 140.225 79.3338 140.225C78.868 140.225 78.4104 140.347 78.007 140.58C77.6036 140.813 77.2686 141.147 77.0357 141.55L39.773 206.04C39.5401 206.443 39.4175 206.901 39.4175 207.366C39.4175 207.831 39.5401 208.289 39.773 208.692C40.0059 209.095 40.3409 209.429 40.7443 209.662C41.1477 209.895 41.6053 210.017 42.0711 210.017H156.665C157.029 210.017 157.386 209.922 157.7 209.74C158.015 209.559 158.276 209.298 158.458 208.983C158.639 208.669 158.735 208.312 158.735 207.949C158.735 207.586 158.639 207.23 158.458 206.915Z" fill="#CD76FF"/>
<path d="M23.2192 131.499H12.6047V142.105H23.2192V131.499Z" fill="#3F3D56"/>
<path d="M246.517 85.4612H111.226C109.989 85.4598 108.803 84.9682 107.929 84.0943C107.054 83.2204 106.562 82.0356 106.561 80.7997V4.66153C106.562 3.42566 107.054 2.24082 107.929 1.36693C108.803 0.493031 109.989 0.00143757 111.226 0H246.517C247.754 0.00139245 248.94 0.49297 249.814 1.36687C250.689 2.24078 251.181 3.42565 251.182 4.66153V80.7997C251.181 82.0356 250.689 83.2204 249.814 84.0943C248.94 84.9682 247.754 85.4598 246.517 85.4612ZM111.226 1.03589C110.264 1.03697 109.342 1.41931 108.661 2.09901C107.981 2.77871 107.599 3.70029 107.598 4.66153V80.7997C107.599 81.7609 107.981 82.6825 108.661 83.3622C109.342 84.0419 110.264 84.4242 111.226 84.4253H246.517C247.479 84.4242 248.401 84.0419 249.082 83.3622C249.762 82.6825 250.145 81.7609 250.146 80.7997V4.66153C250.145 3.7003 249.762 2.77876 249.082 2.09906C248.401 1.41937 247.479 1.03701 246.517 1.03589H111.226Z" fill="#CCCCCC"/>
<path d="M155.827 53.4472C166.511 53.4472 175.172 44.7927 175.172 34.1168C175.172 23.4409 166.511 14.7864 155.827 14.7864C145.142 14.7864 136.481 23.4409 136.481 34.1168C136.481 44.7927 145.142 53.4472 155.827 53.4472Z" fill="#F2F2F2"/>
<path d="M230.374 68.2509L207.665 28.949C207.523 28.7033 207.319 28.4993 207.073 28.3575C206.827 28.2156 206.548 28.141 206.264 28.141C205.98 28.141 205.702 28.2156 205.456 28.3575C205.21 28.4993 205.006 28.7033 204.864 28.949L189.5 48.5L170.345 17.1772C170.163 16.8623 169.901 16.6008 169.586 16.4189C169.271 16.2371 168.913 16.1414 168.549 16.1414C168.185 16.1414 167.828 16.2371 167.513 16.4189C167.197 16.6008 166.936 16.8623 166.754 17.1772L137.638 67.5671C137.456 67.8821 137.36 68.2393 137.36 68.603C137.36 68.9667 137.456 69.324 137.638 69.6389C137.82 69.9539 138.082 70.2154 138.397 70.3972C138.712 70.5791 139.07 70.6748 139.434 70.6748H228.973C229.257 70.6748 229.536 70.6001 229.782 70.4583C230.028 70.3165 230.232 70.1125 230.374 69.8668C230.516 69.6212 230.59 69.3425 230.59 69.0589C230.59 68.7752 230.516 68.4966 230.374 68.2509Z" fill="#E6E6E6"/>
<path d="M124.703 9.323H116.41V17.6101H124.703V9.323Z" fill="#CCCCCC"/>
</g>
<defs>
<clipPath id="clip0_195_20">
<rect width="734" height="497" fill="white"/>
</clipPath>
</defs>
</svg>
