<svg width="583" height="472" viewBox="0 0 583 472" fill="none" xmlns="http://www.w3.org/2000/svg">
<path fill-rule="evenodd" clip-rule="evenodd" d="M512.476 430.846H70.5214C65.9814 430.846 62.2649 434.324 62.2649 438.574C62.2649 442.822 65.9802 446.302 70.5214 446.302H96.4871C101.147 446.302 104.959 449.869 104.959 454.226C104.959 458.586 101.147 462.153 96.4871 462.153H93.684C90.7909 462.153 88.4221 464.37 88.4221 467.078C88.4221 469.787 90.7897 472 93.684 472C206.113 472 338.075 472 450.503 472C455.233 472 459.101 468.38 459.101 463.954C459.101 459.53 455.231 455.909 450.503 455.909H448.149C445.325 455.909 443.015 453.747 443.015 451.105C443.015 448.462 445.325 446.302 448.149 446.302H512.474C517.014 446.302 520.731 442.822 520.731 438.574C520.732 434.324 517.015 430.846 512.476 430.846ZM474.694 471.999C470.001 471.999 466.16 468.405 466.16 464.013V463.893C466.16 459.501 470.001 455.907 474.694 455.907C479.388 455.907 483.23 459.501 483.23 463.893V464.013C483.231 468.404 479.388 471.999 474.694 471.999Z" fill="#A75268"/>
<path fill-rule="evenodd" clip-rule="evenodd" d="M93.7081 430.622C42.1683 430.622 0 391.16 0 342.933C0 294.706 42.1683 255.243 93.7081 255.243C115.501 255.243 133.33 238.559 133.33 218.167C133.33 197.773 115.501 181.089 93.7081 181.089H88.9917C66.3359 181.089 47.7982 163.743 47.7982 142.543V142.541C47.7982 121.34 66.3359 103.993 88.9917 103.993H103.459C112.278 103.993 119.496 97.2391 119.496 88.9873V88.9862C119.496 80.732 112.278 73.9791 103.459 73.9791H92.8284C86.7405 73.9791 81.7601 69.3175 81.7601 63.6219C81.7601 57.9252 86.7405 53.2636 92.8284 53.2636H164.284C173.85 53.2636 181.676 45.9404 181.676 36.9884C181.676 28.0375 173.85 20.7143 164.284 20.7143H142.919C136.831 20.7143 131.851 16.0539 131.851 10.3572C131.851 4.66043 136.831 0 142.919 0H455.837C463.78 0 470.281 6.08315 470.281 13.5153C470.281 20.9474 463.78 27.0305 455.837 27.0305H449.859C437.378 27.0305 427.166 36.5867 427.166 48.2659C427.166 59.9451 437.378 69.5025 449.859 69.5025H518.691C526.635 69.5025 533.133 75.5857 533.133 83.0166C533.133 90.4499 526.635 96.5319 518.691 96.5319H504.821C493.312 96.5319 483.895 105.345 483.895 116.115C483.895 126.886 493.311 135.698 504.821 135.698H523.698C553.261 135.698 577.451 158.333 577.451 185.998V185.999C577.451 213.663 553.261 236.299 523.698 236.299H517.545C489.108 236.299 465.841 258.071 465.841 284.679C465.841 311.29 489.109 333.059 517.545 333.059H530.87C559.541 333.059 583 355.009 583 381.839C583 408.67 559.541 430.619 530.87 430.619C382.532 430.622 242.044 430.622 93.7081 430.622ZM492.796 27.0329C500.772 27.0329 507.238 20.9813 507.238 13.5164C507.238 6.05154 500.772 0.00117032 492.796 0.00117032C484.818 0.00117032 478.352 6.05154 478.352 13.5164C478.352 20.9801 484.818 27.0329 492.796 27.0329ZM61.7684 73.9803C67.8813 73.9803 72.8379 69.3421 72.8379 63.6219C72.8379 57.9018 67.8825 53.2648 61.7684 53.2648C55.6555 53.2648 50.7001 57.9018 50.7001 63.6219C50.6989 69.3433 55.6555 73.9803 61.7684 73.9803Z" fill="#F3DFE3"/>
<path fill-rule="evenodd" clip-rule="evenodd" d="M163.45 86.4486C163.368 86.3093 162.758 85.239 162.594 83.4135C160.473 80.3678 160.646 76.3783 161.947 72.5106C162.851 69.8268 164.299 67.1945 165.887 64.9989C167.493 62.7753 169.264 60.9708 170.778 59.9848C171.971 59.2085 173.097 58.89 174.027 59.1628C175.164 59.4989 175.915 60.0937 176.402 60.8057C178.109 61.1558 183.256 62.616 184.179 67.568C185.693 68.2846 187.259 69.5856 188.024 71.9415C189.848 72.7226 195.734 75.7811 193.497 81.9088C193.607 82.0165 193.713 82.1301 193.818 82.2507C195.284 83.9463 195.165 85.4498 193.991 86.8631C193.026 88.0259 191.283 89.0587 189.153 90.0809C186.649 91.2812 182.192 92.835 177.469 92.6044C174.307 92.451 171.032 91.506 168.135 89.1512C166.766 88.9217 165.544 88.4334 164.553 87.6254C164.165 87.3104 163.817 86.9486 163.508 86.5353L163.45 86.4486Z" fill="#D48F9E"/>
<path fill-rule="evenodd" clip-rule="evenodd" d="M204.865 131.388C205.366 131.708 205.495 132.348 205.153 132.818C204.812 133.288 204.128 133.408 203.627 133.087C190.377 124.617 174.554 121.051 159.137 122.392C143.992 123.708 129.237 129.764 117.703 140.557C104.568 152.848 97.9993 169.052 97.9993 185.257C97.9993 201.462 104.568 217.665 117.703 229.959L218.286 324.08C218.717 324.481 218.717 325.133 218.286 325.535C217.856 325.937 217.159 325.937 216.728 325.535L116.145 231.414C102.579 218.72 95.7957 201.987 95.7957 185.256C95.7957 168.524 102.579 151.792 116.145 139.099C128.052 127.956 143.291 121.704 158.938 120.344C174.852 118.962 191.187 122.642 204.865 131.388Z" fill="#443E71"/>
<path fill-rule="evenodd" clip-rule="evenodd" d="M162.744 302.387C156.444 309.396 148.039 318.747 130.241 314.822L130.157 314.801C129.575 314.641 129.245 314.068 129.416 313.521C134.343 298.123 144.151 292.939 153.17 291.769C152.015 291.461 150.871 291.148 149.74 290.826L149.716 290.819L149.712 290.816C148.062 290.349 146.439 289.861 144.852 289.349C143.05 288.853 140.966 290.634 138.38 292.838C133.254 297.217 126.414 303.057 114.26 298.709L114.2 298.685C113.647 298.451 113.399 297.841 113.649 297.326C118.513 287.21 125.653 284.288 131.979 284.1C130.878 283.515 129.82 282.903 128.814 282.264C125.757 282.225 103.989 281.164 106.621 258.711C106.685 258.146 107.227 257.735 107.83 257.796L107.957 257.816C120.759 259.768 123.492 267.997 125.541 274.167C126.22 276.215 126.813 278.001 127.658 279.101C127.855 279.122 128.049 279.19 128.217 279.312C131.061 281.382 134.448 283.153 138.208 284.72C139.184 284.934 140.099 285.187 140.931 285.452C135.759 280.793 131.428 272.881 138.341 260.939C138.629 260.439 139.296 260.252 139.83 260.52L139.928 260.576C150.977 266.936 150.171 275.541 149.567 281.988C149.262 285.242 149.015 287.865 150.525 288.896C153.994 289.881 157.589 290.786 161.227 291.656C162.614 291.782 163.921 291.974 165.123 292.196C158.774 287.644 153.29 279.546 158.445 265.632C158.643 265.098 159.267 264.814 159.841 264.998L159.896 265.016L159.897 265.014C173.767 270.278 174.573 280.207 175.176 287.646C175.49 291.519 175.743 294.629 177.843 295.532C179.671 295.974 181.477 296.424 183.249 296.887C178.541 292.879 174.96 286.199 179.386 275.487C179.605 274.958 180.242 274.696 180.806 274.897L180.886 274.93C192.117 279.649 192.471 287.827 192.734 293.957C192.868 297.074 192.977 299.579 194.583 300.31C196.407 300.963 198.15 301.649 199.795 302.385C199.823 302.397 199.849 302.409 199.877 302.422C200.356 302.637 200.828 302.855 201.291 303.081C204.708 304.734 208.149 307.2 210.424 310.378C212.309 313.017 213.393 316.136 213.017 319.677C212.958 320.24 212.42 320.654 211.817 320.599C211.214 320.543 210.772 320.039 210.831 319.474C211.15 316.456 210.218 313.789 208.6 311.522C206.554 308.661 203.414 306.422 200.283 304.909C199.868 304.706 199.444 304.509 199.012 304.314C196.343 303.871 193.881 306.608 190.821 310.011C185.009 316.479 177.253 325.108 160.822 321.486L160.737 321.465C160.155 321.302 159.823 320.729 159.997 320.185C165.349 303.451 176.947 299.781 186.248 299.843C183.345 299.022 180.317 298.252 177.217 297.504C177.107 297.48 176.64 297.384 175.918 297.191C174.399 296.828 172.866 296.471 171.324 296.116C168.528 295.953 165.932 298.841 162.744 302.387Z" fill="#D48F9E"/>
<path fill-rule="evenodd" clip-rule="evenodd" d="M98.6148 197.783C91.7649 197.856 82.6262 197.954 76.7035 187.277L76.6772 187.224C76.4295 186.707 76.6797 186.099 77.2328 185.868C87.3939 181.624 94.5104 183.44 99.3118 186.854C99.1829 186.585 99.0553 186.317 98.9289 186.05C98.9127 186.021 98.8989 185.99 98.8851 185.959C98.4334 184.998 98.0004 184.042 97.5937 183.09C97.5812 183.065 97.5699 183.042 97.5599 183.016C97.1545 182.023 95.2787 181.81 92.9399 181.545C88.1072 181 81.6627 180.267 78.5343 172.231C78.5155 172.192 78.5005 172.149 78.4867 172.106C78.3153 171.562 78.6481 170.989 79.23 170.83C86.5993 168.789 91.3807 170.505 94.4516 173.188C94.3765 172.76 94.3127 172.332 94.2601 171.909C92.6659 170.098 83.7312 158.914 97.5712 150.029C98.073 149.709 98.7562 149.83 99.0979 150.299L99.1279 150.339C103.952 157.679 100.509 162.831 97.9278 166.692C97.1357 167.875 96.445 168.911 96.1935 169.742C96.256 169.864 96.2948 169.998 96.3011 170.141C96.4237 172.423 96.9468 174.84 97.7501 177.346C97.8502 177.529 97.9466 177.71 98.038 177.888C98.6774 173.419 101.571 168.388 110.734 166.523C111.329 166.404 111.914 166.757 112.043 167.312L112.064 167.439C113.494 175.878 108.23 179.419 104.282 182.075C102.441 183.311 100.954 184.313 100.989 185.326C101.986 187.434 103.083 189.568 104.217 191.707C104.5 192.083 104.764 192.457 105.011 192.825C105.079 187.815 107.587 182.028 117.111 178.498C117.677 178.289 118.316 178.549 118.54 179.078C118.559 179.121 118.573 179.165 118.584 179.209C121.896 188.508 116.641 193.438 112.699 197.134C110.763 198.948 109.206 200.41 109.572 201.666C109.946 202.377 110.314 203.084 110.673 203.788C111.167 199.886 113.645 195.655 121.044 193.195C121.616 193.006 122.246 193.287 122.448 193.823L122.465 193.871C124.96 201.7 120.45 205.638 117.071 208.59C115.472 209.987 114.188 211.109 114.445 212.04C114.894 213.207 115.288 214.355 115.616 215.476L115.631 215.52C115.643 215.558 115.652 215.596 115.66 215.633C117.036 220.436 117.171 224.791 115.088 228.392C114.801 228.893 114.134 229.079 113.6 228.811C113.064 228.542 112.865 227.918 113.152 227.418C114.918 224.367 114.787 220.535 113.561 216.228C112.688 214.912 110.147 214.939 106.996 214.973C100.671 215.041 92.2279 215.13 86.7519 205.26L86.7257 205.207C86.4779 204.689 86.7269 204.082 87.2813 203.851C98.0067 199.37 105.063 202.2 109.455 206.192C108.858 204.989 108.23 203.771 107.582 202.542C107.563 202.511 107.548 202.48 107.532 202.447C107.471 202.338 107.343 202.106 107.178 201.777C106.69 200.858 106.194 199.934 105.691 199.007C104.609 197.719 101.92 197.747 98.6148 197.783Z" fill="#D48F9E"/>
<path fill-rule="evenodd" clip-rule="evenodd" d="M215.503 134.53C213.293 132.488 208.946 130.605 201.589 129.915C201.532 129.908 201.476 129.903 201.421 129.902C200.843 129.893 200.532 130.259 200.723 130.721C203.145 136.504 206.332 139.597 209.241 140.93C212.348 142.354 215.096 141.841 216.474 140.428C217.846 139.019 217.858 136.708 215.503 134.53Z" fill="#443E71"/>
<path fill-rule="evenodd" clip-rule="evenodd" d="M198.046 133.816C196.854 131.133 193.623 127.822 187.126 124.523C187.078 124.496 187.026 124.47 186.975 124.449C186.448 124.231 186.009 124.457 185.994 124.952C185.835 131.161 187.494 135.168 189.625 137.45C191.9 139.89 194.647 140.411 196.5 139.607C198.351 138.806 199.318 136.679 198.046 133.816Z" fill="#443E71"/>
<path fill-rule="evenodd" clip-rule="evenodd" d="M180.911 129.454C179.568 126.832 176.158 123.686 169.483 120.709C169.433 120.685 169.382 120.662 169.331 120.644C168.791 120.453 168.365 120.699 168.378 121.193C168.567 127.402 170.448 131.322 172.704 133.497C175.115 135.82 177.886 136.207 179.692 135.313C181.494 134.422 182.341 132.25 180.911 129.454Z" fill="#443E71"/>
<path fill-rule="evenodd" clip-rule="evenodd" d="M205.769 119.607C202.667 119.465 198.086 120.779 192.117 124.861C192.07 124.89 192.025 124.922 191.984 124.957C191.547 125.311 191.576 125.779 192.047 126.001C197.976 128.797 202.556 129.109 205.674 128.285C209.004 127.404 210.682 125.306 210.701 123.395C210.717 121.486 209.078 119.758 205.769 119.607Z" fill="#443E71"/>
<path fill-rule="evenodd" clip-rule="evenodd" d="M188.121 112.991C185.05 113.427 180.837 115.56 175.846 120.664C175.808 120.703 175.769 120.742 175.735 120.784C175.382 121.21 175.509 121.663 176.018 121.797C182.42 123.44 186.975 122.901 189.858 121.517C192.935 120.038 194.14 117.669 193.753 115.793C193.369 113.919 191.396 112.527 188.121 112.991Z" fill="#443E71"/>
<path fill-rule="evenodd" clip-rule="evenodd" d="M147.593 243.005C148.583 245.759 148.481 250.242 145.909 256.728C145.892 256.78 145.872 256.828 145.848 256.874C145.604 257.366 145.116 257.467 144.757 257.104C140.268 252.525 138.699 248.489 138.698 245.457C138.696 242.218 140.396 240.135 142.356 239.597C144.312 239.063 146.539 240.068 147.593 243.005Z" fill="#443E71"/>
<path fill-rule="evenodd" clip-rule="evenodd" d="M132.967 230.018C133.957 232.775 133.856 237.255 131.283 243.741C131.266 243.792 131.247 243.843 131.222 243.888C130.978 244.376 130.49 244.48 130.131 244.114C125.642 239.539 124.074 235.501 124.072 232.469C124.07 229.23 125.77 227.147 127.732 226.611C129.686 226.074 131.913 227.08 132.967 230.018Z" fill="#443E71"/>
<path fill-rule="evenodd" clip-rule="evenodd" d="M121.756 251.029C124.638 252.111 129.423 252.275 136.495 250.247C136.549 250.232 136.602 250.217 136.655 250.199C137.191 249.996 137.327 249.544 136.96 249.189C132.335 244.732 128.118 243.036 124.883 242.859C121.43 242.672 119.107 244.139 118.423 245.94C117.739 247.734 118.683 249.872 121.756 251.029Z" fill="#443E71"/>
<path fill-rule="evenodd" clip-rule="evenodd" d="M163.187 85.5495C163.665 85.1993 164.355 85.279 164.728 85.7251C165.102 86.1724 165.016 86.8176 164.539 87.1677C154.032 94.8528 151.279 106.557 148.617 117.88C144.352 136.014 140.306 153.217 106.627 153.193C106.022 153.193 105.531 152.733 105.531 152.166C105.531 151.6 106.023 151.14 106.627 151.14C138.534 151.163 142.395 134.745 146.465 117.437C149.21 105.763 152.048 93.697 163.187 85.5495Z" fill="#7F6A81"/>
<path fill-rule="evenodd" clip-rule="evenodd" d="M162.897 86.8529C162.811 86.7077 162.18 85.5976 162.01 83.7018C159.808 80.5402 159.987 76.3985 161.337 72.3844C162.275 69.5987 163.779 66.8657 165.426 64.587C167.094 62.2767 168.933 60.4055 170.506 59.3821C171.742 58.5764 172.911 58.2451 173.875 58.5296C175.057 58.8774 175.836 59.4968 176.341 60.2357C178.114 60.601 183.456 62.1139 184.414 67.2556C185.986 68.0004 187.612 69.3493 188.408 71.7966C190.298 72.6081 196.411 75.7826 194.089 82.1444C194.203 82.2557 194.314 82.3739 194.423 82.4992C195.944 84.2592 195.821 85.8201 194.603 87.2885C193.602 88.4946 191.791 89.5683 189.58 90.6292C186.98 91.8751 182.353 93.4875 177.451 93.2487C174.168 93.0882 170.768 92.107 167.76 89.6632C166.34 89.4255 165.07 88.9184 164.042 88.08C163.642 87.7533 163.279 87.3763 162.959 86.9477L162.897 86.8529ZM189.64 74.8704C190.629 76.3774 190.85 78.1374 189.437 80.3154C190.288 80.3622 191.252 80.5191 192.18 80.9032C192.929 78.0121 191.261 76.0449 189.64 74.8704ZM192.162 83.2744C192.13 83.2533 192.099 83.2311 192.07 83.2065C190.544 82.1187 188.428 82.3142 187.652 82.4348C186.798 83.2498 185.731 84.0753 184.523 84.8622C181.555 86.7943 177.676 88.5273 173.994 89.3376C173.217 89.5086 172.448 89.6374 171.696 89.7206C173.599 90.6667 175.604 91.0976 177.562 91.1936C181.994 91.4102 186.209 89.9372 188.583 88.799C190.534 87.8634 192.097 86.9571 192.865 86.0308C193.413 85.3681 193.453 84.6421 192.718 83.7943C192.547 83.5976 192.361 83.4255 192.162 83.2744ZM177.143 62.5765C177.225 63.3633 177.169 64.1292 177.076 64.7439C177.31 64.7662 177.543 64.8001 177.776 64.8481C179.439 65.1924 180.379 65.7146 181.051 66.3645C181.281 66.3833 181.573 66.4172 181.912 66.4758C180.964 64.1947 178.718 63.0882 177.143 62.5765ZM182.894 68.8786C183.271 69.3716 183.751 69.8868 184.456 70.4032C184.774 70.635 185.095 70.861 185.422 71.0905L185.841 71.3856C185.079 70.0214 183.93 69.2814 182.894 68.8786ZM162.582 78.9348C162.925 77.8306 163.438 76.628 164.176 75.3364C166.195 71.8118 168.447 68.9301 170.75 67.0788C172.087 66.0039 173.456 65.2626 174.821 64.9242C175.079 63.7439 175.38 61.1303 173.221 60.4945C172.954 60.416 172.438 60.6327 171.763 61.0729C170.402 61.9582 168.769 63.6362 167.251 65.7392C165.709 67.8727 164.306 70.4172 163.438 72.9969C162.756 75.0261 162.4 77.0718 162.582 78.9348ZM164.144 83.0976C164.174 83.217 164.18 83.3388 164.165 83.4582C164.278 84.8283 164.697 85.6339 164.796 85.8095C165.001 86.0777 165.234 86.3154 165.489 86.5226C166.26 87.1515 167.258 87.5191 168.405 87.6784L168.431 87.6807C169.929 87.8845 171.676 87.7311 173.495 87.3306C176.9 86.5824 180.501 84.97 183.268 83.1702C184.598 82.3037 185.726 81.3997 186.529 80.5367C189.23 77.6339 187.946 75.7158 186.027 74.1526C185.385 73.6292 184.735 73.1725 184.107 72.731C183.76 72.4887 183.418 72.2474 183.107 72.0203C181.606 70.9231 180.947 69.902 180.369 69.0062C179.739 68.0331 179.235 67.2521 177.304 66.8528C176.851 66.7591 176.384 66.7474 175.904 66.813L175.879 66.8165L175.873 66.8177C174.689 66.9886 173.441 67.6257 172.179 68.642C170.085 70.3259 168.005 73.0015 166.115 76.3025C164.46 79.1901 164.082 81.4828 164.144 83.0976Z" fill="#A75268"/>
<path fill-rule="evenodd" clip-rule="evenodd" d="M147.1 120.081C147.457 118.903 147.693 117.572 147.86 116.364C148.234 113.628 148.264 110.793 147.805 108.066C146.356 99.4935 140.459 94.3249 131.421 92.6422C130.712 92.5099 130.018 92.8542 129.736 93.476C126.141 101.417 127.395 108.887 134.157 114.826C136.308 116.716 138.831 118.288 141.46 119.535C142.622 120.086 143.93 120.651 145.172 121.037C145.577 121.163 145.976 121.133 146.354 120.946C146.734 120.757 146.984 120.467 147.1 120.081Z" fill="#9FBBC1"/>
<path fill-rule="evenodd" clip-rule="evenodd" d="M133.201 145.384C133.711 144.257 134.416 143.08 135.093 142.039C136.629 139.685 138.502 137.455 140.683 135.596C147.542 129.754 155.598 129.172 163.776 133.15C164.417 133.462 164.728 134.135 164.533 134.786C162.03 143.087 156.06 148.181 146.814 148.859C143.872 149.074 140.853 148.822 137.969 148.258C136.694 148.007 135.294 147.683 134.067 147.258C133.667 147.119 133.377 146.861 133.206 146.494C133.037 146.127 133.036 145.753 133.201 145.384Z" fill="#9FBBC1"/>
<path fill-rule="evenodd" clip-rule="evenodd" d="M121.623 150.794C122.235 150.577 122.876 150.269 123.443 149.97C124.728 149.296 125.953 148.462 126.986 147.477C130.23 144.378 130.688 140.624 128.717 136.728C128.562 136.422 128.209 136.264 127.856 136.344C123.379 137.361 120.551 140.058 120.019 144.367C119.85 145.739 119.929 147.154 120.178 148.513C120.288 149.113 120.435 149.772 120.64 150.353C120.706 150.544 120.839 150.683 121.032 150.77C121.224 150.858 121.423 150.865 121.623 150.794Z" fill="#9FBBC1"/>
<path fill-rule="evenodd" clip-rule="evenodd" d="M151.539 105.661C152.179 105.78 152.898 105.838 153.548 105.867C155.019 105.934 156.53 105.834 157.963 105.511C162.469 104.495 164.988 101.54 165.525 97.2592C165.566 96.9232 165.356 96.614 165.013 96.5075C160.642 95.1468 156.714 96.0285 153.821 99.4173C152.901 100.496 152.164 101.735 151.605 103.01C151.357 103.573 151.109 104.207 150.952 104.8C150.902 104.995 150.933 105.18 151.048 105.348C151.164 105.517 151.33 105.622 151.539 105.661Z" fill="#9FBBC1"/>
<path fill-rule="evenodd" clip-rule="evenodd" d="M444.838 107.451C444.629 106.917 444.922 106.326 445.494 106.13C446.062 105.935 446.696 106.209 446.904 106.743C446.934 106.819 457.236 133.177 466.744 140.628C467.21 140.993 467.27 141.642 466.881 142.078C466.489 142.513 465.797 142.571 465.331 142.205C455.368 134.397 444.869 107.528 444.838 107.451Z" fill="#7F6A81"/>
<path fill-rule="evenodd" clip-rule="evenodd" d="M420.968 92.1529C421.347 85.6318 428.085 84.8519 430.104 84.7653C431.771 82.832 433.76 82.1692 435.467 82.0334C438.327 77.7243 443.731 78.1786 445.472 78.4514C446.213 77.9573 447.156 77.6645 448.354 77.7535C449.335 77.825 450.259 78.5217 451.062 79.668C452.079 81.1247 453.007 83.4374 453.614 86.0884C454.213 88.7044 454.507 91.6786 454.269 94.5018C453.927 98.5803 452.477 102.374 449.263 104.474C448.476 105.933 447.602 106.715 447.319 106.944C447.267 106.991 447.211 107.035 447.149 107.072C446.706 107.345 446.23 107.559 445.731 107.721C444.481 108.126 443.144 108.152 441.777 107.886C438.113 109.067 434.665 108.795 431.643 107.822C427.132 106.37 423.587 103.34 421.729 101.331C420.148 99.6236 418.935 98.0405 418.504 96.6131C417.976 94.8765 418.47 93.4269 420.525 92.3601C420.674 92.284 420.821 92.2149 420.968 92.1529Z" fill="#D48F9E"/>
<path fill-rule="evenodd" clip-rule="evenodd" d="M377.695 133.087C377.193 133.408 376.509 133.286 376.166 132.818C375.827 132.348 375.955 131.709 376.456 131.388C390.135 122.642 406.469 118.962 422.384 120.345C438.03 121.706 453.269 127.957 465.177 139.1C478.743 151.793 485.525 168.526 485.525 185.257C485.525 201.989 478.743 218.721 465.177 231.415L364.592 325.536C364.161 325.938 363.466 325.938 363.034 325.536C362.605 325.135 362.605 324.482 363.034 324.081L463.617 229.96C476.754 217.666 483.32 201.463 483.32 185.258C483.32 169.055 476.754 152.85 463.617 140.558C452.082 129.764 437.329 123.709 422.185 122.393C406.768 121.05 390.945 124.617 377.695 133.087Z" fill="#443E71"/>
<path fill-rule="evenodd" clip-rule="evenodd" d="M436.658 299.279C424.894 304.115 417.839 298.671 412.554 294.594C409.999 292.62 407.921 291.017 406.215 291.397C405.24 291.81 404.269 292.22 403.311 292.636C402.875 292.835 402.573 292.961 402.458 293.006C402.43 293.02 402.4 293.03 402.37 293.042C401.047 293.617 399.745 294.195 398.48 294.777C404.574 294.246 411.966 296.184 417.318 305.975C417.592 306.478 417.38 307.097 416.84 307.357L416.78 307.384C405.902 311.854 399.386 306.825 394.502 303.058C392.07 301.181 390.107 299.667 388.544 300.19C384.709 302.822 382.042 305.728 381.373 309.135C381.263 309.695 380.69 310.065 380.093 309.962C379.493 309.862 379.099 309.325 379.209 308.766C379.998 304.74 383.02 301.433 387.309 298.499C387.354 298.462 387.403 298.427 387.456 298.398C388.464 297.715 389.543 297.053 390.677 296.405C391.496 295.832 391.25 294.204 390.94 292.177C390.289 287.91 389.424 282.225 396.539 277.598C396.577 277.571 396.618 277.543 396.661 277.519C397.18 277.222 397.856 277.377 398.172 277.86C402.283 284.119 401.375 288.869 399.141 292.198C399.893 291.86 400.653 291.526 401.421 291.191C402.548 290.432 402.316 288.379 402.023 285.827C401.432 280.629 400.641 273.695 409.49 268.392L409.584 268.337C410.11 268.057 410.781 268.229 411.08 268.722C416.134 277.064 414.205 283.045 410.899 286.989C411.336 286.846 411.789 286.712 412.259 286.583C414.579 285.583 416.868 284.564 419.06 283.507C419.766 282.741 419.278 281.085 418.673 279.041C417.378 274.651 415.651 268.797 422.444 263.059L422.531 262.986C423.004 262.627 423.699 262.699 424.079 263.141C429.965 269.974 428.845 275.589 426.344 279.447C426.532 279.363 426.725 279.278 426.922 279.197C428.815 277.986 430.516 276.708 431.964 275.349L431.983 275.329L432.003 275.312C432.312 275.022 432.607 274.728 432.893 274.43C432.994 274.322 433.114 274.24 433.243 274.185C433.605 273.389 433.76 272.178 433.938 270.793C434.516 266.273 435.289 260.235 443.968 257.351L444.021 257.335C444.603 257.174 445.214 257.485 445.389 258.025C450.209 273.076 435.742 276.534 433.297 277.006C432.97 277.305 432.634 277.599 432.286 277.893C436.477 277.604 441.354 279.072 445.725 284.99C446.071 285.458 445.947 286.097 445.446 286.421C445.406 286.448 445.365 286.472 445.321 286.49C437.504 290.911 431.998 287.697 427.87 285.287C425.866 284.119 424.261 283.184 423.276 283.721C423.25 283.735 423.223 283.748 423.197 283.76C422.252 284.255 421.288 284.739 420.304 285.215C420.258 285.242 420.206 285.268 420.155 285.287C419.882 285.42 419.607 285.554 419.333 285.684C425.365 285.841 432.127 288.599 437.195 297.872C437.471 298.377 437.259 298.996 436.718 299.255L436.658 299.279Z" fill="#D48F9E"/>
<path fill-rule="evenodd" clip-rule="evenodd" d="M517.133 173.141C509.766 186.424 498.374 186.301 489.834 186.209C485.586 186.164 482.127 186.126 480.693 187.866C480.061 189.036 479.434 190.201 478.819 191.359C478.597 191.802 478.432 192.102 478.358 192.232C478.343 192.263 478.327 192.294 478.308 192.324C477.237 194.357 476.207 196.369 475.256 198.343C480.604 192.839 489.664 188.369 503.97 194.344C504.522 194.576 504.772 195.184 504.524 195.701L504.497 195.753C497.692 208.021 487.174 207.908 479.293 207.825C475.216 207.782 471.936 207.747 470.774 209.559C469.204 215.052 469.034 219.952 471.299 223.864C471.587 224.364 471.387 224.988 470.852 225.256C470.318 225.526 469.65 225.338 469.365 224.837C466.782 220.372 466.956 214.948 468.679 208.953C468.686 208.919 468.696 208.884 468.708 208.852L468.704 208.851L468.729 208.774C469.139 207.37 469.634 205.933 470.197 204.472C470.57 203.146 468.897 201.687 466.816 199.867C462.621 196.205 457.025 191.316 460.111 181.627L460.13 181.579C460.33 181.043 460.959 180.762 461.531 180.95C471.304 184.203 474.149 189.945 474.473 195.027C475.07 193.842 475.688 192.647 476.321 191.446C476.847 189.714 474.831 187.823 472.322 185.47C467.415 180.869 460.872 174.731 464.997 163.18C465.007 163.137 465.024 163.093 465.041 163.05C465.264 162.521 465.903 162.261 466.47 162.47C478.904 167.077 481.713 174.784 481.492 181.21C481.947 180.489 482.456 179.74 483.027 178.982C484.469 176.263 485.863 173.55 487.129 170.871C487.232 169.435 485.284 168.126 482.873 166.504C477.968 163.206 471.426 158.803 473.206 148.338L473.228 148.213C473.356 147.656 473.941 147.304 474.536 147.422C486.55 149.868 489.871 156.7 490.387 162.46C490.621 161.952 490.884 161.425 491.182 160.888C492.204 157.703 492.873 154.631 493.028 151.727C493.035 151.551 493.093 151.387 493.183 151.247C492.88 150.135 491.975 148.784 490.941 147.236C487.735 142.44 483.459 136.041 489.433 126.952L489.461 126.912C489.803 126.442 490.486 126.323 490.989 126.641C508.312 137.764 496.86 151.785 495.044 153.83C494.942 154.653 494.806 155.484 494.64 156.326C498.414 152.685 504.485 150.162 514.133 152.836C514.715 152.994 515.049 153.566 514.878 154.112C514.863 154.155 514.847 154.196 514.829 154.236C510.959 164.203 502.947 165.112 496.94 165.792C493.904 166.137 491.471 166.412 490.898 167.812C490.888 167.838 490.876 167.863 490.864 167.887C490.352 169.086 489.806 170.292 489.235 171.504C489.221 171.537 489.207 171.57 489.19 171.6C488.868 172.281 488.542 172.962 488.205 173.645C494.182 168.967 503.298 166.171 516.61 171.731C517.163 171.962 517.412 172.571 517.165 173.089L517.133 173.141Z" fill="#D48F9E"/>
<path fill-rule="evenodd" clip-rule="evenodd" d="M365.818 134.53C368.028 132.488 372.374 130.605 379.732 129.915C379.789 129.908 379.845 129.903 379.9 129.902C380.476 129.893 380.79 130.259 380.598 130.721C378.177 136.504 374.991 139.597 372.08 140.93C368.974 142.354 366.224 141.841 364.849 140.428C363.476 139.019 363.462 136.708 365.818 134.53Z" fill="#443E71"/>
<path fill-rule="evenodd" clip-rule="evenodd" d="M383.275 133.815C384.466 131.133 387.695 127.821 394.197 124.523C394.244 124.496 394.294 124.47 394.346 124.449C394.871 124.231 395.312 124.457 395.327 124.951C395.487 131.161 393.827 135.168 391.696 137.45C389.42 139.889 386.673 140.41 384.821 139.607C382.971 138.806 382.002 136.678 383.275 133.815Z" fill="#443E71"/>
<path fill-rule="evenodd" clip-rule="evenodd" d="M400.41 129.453C401.75 126.832 405.162 123.685 411.838 120.709C411.888 120.684 411.939 120.662 411.992 120.643C412.531 120.452 412.956 120.698 412.944 121.192C412.755 127.402 410.873 131.321 408.617 133.497C406.207 135.82 403.435 136.206 401.629 135.313C399.827 134.422 398.981 132.25 400.41 129.453Z" fill="#443E71"/>
<path fill-rule="evenodd" clip-rule="evenodd" d="M375.552 119.607C378.655 119.465 383.235 120.779 389.204 124.861C389.251 124.89 389.296 124.922 389.337 124.957C389.775 125.311 389.745 125.779 389.274 126.002C383.344 128.797 378.765 129.109 375.647 128.285C372.317 127.404 370.638 125.306 370.619 123.395C370.604 121.486 372.243 119.758 375.552 119.607Z" fill="#443E71"/>
<path fill-rule="evenodd" clip-rule="evenodd" d="M393.199 112.991C396.269 113.427 400.481 115.56 405.473 120.665C405.513 120.703 405.551 120.742 405.585 120.784C405.937 121.21 405.812 121.663 405.302 121.797C398.9 123.44 394.345 122.901 391.462 121.517C388.383 120.038 387.178 117.669 387.566 115.793C387.952 113.919 389.925 112.528 393.199 112.991Z" fill="#443E71"/>
<path fill-rule="evenodd" clip-rule="evenodd" d="M439.738 237.356C438.748 240.111 438.85 244.593 441.422 251.079C441.441 251.13 441.459 251.18 441.483 251.226C441.727 251.714 442.218 251.818 442.576 251.453C447.066 246.877 448.633 242.838 448.635 239.809C448.637 236.57 446.937 234.487 444.977 233.949C443.019 233.413 440.795 234.419 439.738 237.356Z" fill="#443E71"/>
<path fill-rule="evenodd" clip-rule="evenodd" d="M454.363 224.369C453.372 227.123 453.476 231.605 456.048 238.092C456.065 238.142 456.085 238.194 456.109 238.239C456.352 238.728 456.842 238.831 457.2 238.465C461.689 233.889 463.257 229.851 463.259 226.82C463.261 223.581 461.561 221.497 459.6 220.961C457.643 220.426 455.42 221.431 454.363 224.369Z" fill="#443E71"/>
<path fill-rule="evenodd" clip-rule="evenodd" d="M465.574 245.379C462.691 246.461 457.906 246.624 450.837 244.597C450.782 244.583 450.728 244.567 450.677 244.545C450.141 244.346 450.004 243.897 450.372 243.54C454.995 239.083 459.212 237.383 462.447 237.208C465.901 237.018 468.222 238.488 468.908 240.289C469.593 242.085 468.646 244.223 465.574 245.379Z" fill="#443E71"/>
<path fill-rule="evenodd" clip-rule="evenodd" d="M446.239 105.767C446.435 105.609 447.113 105.011 447.737 103.832C447.77 103.709 447.828 103.593 447.908 103.489C448.608 102.012 449.172 99.7545 448.795 96.5039C448.36 92.7767 447.503 89.5671 446.235 87.272C445.156 85.3212 443.805 84.0765 442.199 83.8247C440.243 83.5179 439.461 84.0648 438.492 84.7451C437.591 85.3786 436.566 86.0976 434.75 86.587C434.438 86.6702 433.993 86.7826 433.537 86.895C432.739 87.0929 431.913 87.3001 431.186 87.5343C428.78 88.3118 426.821 89.6432 428.167 93.2849C428.197 93.3692 428.229 93.4524 428.263 93.539L428.265 93.5437C428.284 93.5812 428.301 93.621 428.316 93.6596C428.722 94.6397 429.349 95.7358 430.143 96.8681C431.987 99.5063 434.682 102.262 437.538 104.149C439.036 105.139 440.566 105.884 442.014 106.23C442.084 106.239 442.153 106.255 442.218 106.277C443.309 106.511 444.35 106.511 445.288 106.205C445.607 106.102 445.925 105.957 446.239 105.767ZM427.563 86.9325C426.039 87.9828 425.127 89.5378 425.564 92.0531C424.758 91.7978 423.798 91.6058 422.781 91.6386C423.248 88.6901 425.586 87.4524 427.563 86.9325ZM420.52 92.121C420.909 85.4102 427.845 84.6069 429.92 84.5179C431.637 82.5273 433.685 81.8458 435.442 81.7064C438.384 77.272 443.945 77.738 445.739 78.0214C446.5 77.5121 447.471 77.2111 448.701 77.3013C449.714 77.3751 450.665 78.0929 451.491 79.2732C452.538 80.7732 453.495 83.1526 454.119 85.8809C454.733 88.5753 455.035 91.635 454.793 94.5414C454.441 98.7381 452.947 102.643 449.64 104.804C448.83 106.304 447.931 107.11 447.638 107.347C447.586 107.396 447.529 107.44 447.463 107.478C447.005 107.759 446.517 107.979 446.004 108.146C444.718 108.561 443.342 108.588 441.933 108.315C438.164 109.532 434.615 109.25 431.507 108.249C426.863 106.755 423.215 103.636 421.303 101.568C419.676 99.8107 418.427 98.1831 417.982 96.7135C417.44 94.9266 417.948 93.4348 420.063 92.3364C420.215 92.2568 420.367 92.1866 420.52 92.121ZM444.06 79.9125C442.397 79.8353 439.866 80.0729 438.071 81.861C438.408 81.9254 438.694 81.9968 438.916 82.0601C439.801 81.6901 440.879 81.532 442.562 81.7954C442.799 81.8317 443.029 81.8821 443.257 81.9441C443.417 81.3423 443.671 80.6128 444.06 79.9125ZM436.214 83.7381C435.67 84.0613 435.017 84.3716 434.149 84.6046C433.694 84.7264 433.338 84.8165 432.978 84.9055L432.474 85.032C433.728 84.032 435.092 83.7486 436.214 83.7381ZM451.021 100.178C451.144 99.0355 451.15 97.7416 450.981 96.2849C450.52 92.3119 449.584 88.8517 448.19 86.3294C447.379 84.8598 446.404 83.6924 445.27 82.8985C445.503 81.7205 446.265 79.1877 448.531 79.3551C448.809 79.3751 449.199 79.7568 449.651 80.4008C450.558 81.6994 451.402 83.8259 451.969 86.306C452.544 88.8224 452.827 91.6749 452.599 94.3786C452.42 96.4981 451.93 98.5156 451.021 100.178ZM426.378 94.655C426.844 95.7135 427.502 96.8505 428.302 97.9934C430.28 100.824 433.183 103.788 436.274 105.829C436.925 106.258 437.583 106.647 438.248 106.988C436.104 107.198 434.074 106.896 432.222 106.299C428.026 104.948 424.708 102.107 422.965 100.223C421.531 98.6714 420.441 97.2826 420.1 96.1561C419.856 95.3482 420.11 94.6608 421.13 94.1315C423.205 93.0542 425.59 94.2077 426.378 94.655Z" fill="#A75268"/>
<path fill-rule="evenodd" clip-rule="evenodd" d="M457.659 132.025C457.056 130.94 456.536 129.682 456.113 128.529C455.15 125.922 454.507 123.15 454.367 120.393C453.927 111.724 458.578 105.543 467.066 102.18C467.732 101.916 468.484 102.12 468.895 102.676C474.137 109.77 474.53 117.321 469.194 124.421C467.498 126.68 465.368 128.696 463.065 130.417C462.048 131.178 460.888 131.981 459.755 132.594C459.385 132.794 458.988 132.84 458.578 132.728C458.167 132.618 457.858 132.38 457.659 132.025Z" fill="#9FBBC1"/>
<path fill-rule="evenodd" clip-rule="evenodd" d="M451.354 120.202C450.754 120.441 450.063 120.633 449.431 120.785C448.004 121.129 446.504 121.32 445.03 121.274C440.396 121.135 437.29 118.72 435.836 114.629C435.722 114.309 435.861 113.966 436.175 113.797C440.161 111.635 444.196 111.752 447.765 114.523C448.899 115.404 449.889 116.477 450.713 117.619C451.078 118.124 451.459 118.697 451.74 119.249C451.832 119.429 451.841 119.616 451.765 119.804C451.69 119.989 451.551 120.123 451.354 120.202Z" fill="#9FBBC1"/>
<path fill-rule="evenodd" clip-rule="evenodd" d="M411.343 37.4462H406.731C405.621 37.4462 404.715 36.5972 404.715 35.5597V31.2471C404.715 30.2084 405.623 29.3607 406.731 29.3607H411.343C412.451 29.3607 413.357 30.2084 413.357 31.2471V35.5597C413.357 36.5984 412.45 37.4462 411.343 37.4462Z" fill="#E8BFC5"/>
<path fill-rule="evenodd" clip-rule="evenodd" d="M395.355 37.4462H390.747C389.637 37.4462 388.731 36.5972 388.731 35.5597V31.2471C388.731 30.2084 389.638 29.3607 390.747 29.3607H395.355C396.465 29.3607 397.371 30.2084 397.371 31.2471V35.5597C397.371 36.5984 396.465 37.4462 395.355 37.4462Z" fill="white"/>
<path fill-rule="evenodd" clip-rule="evenodd" d="M379.372 37.4462H374.763C373.653 37.4462 372.747 36.5972 372.747 35.5597V31.2471C372.747 30.2084 373.654 29.3607 374.763 29.3607H379.372C380.483 29.3607 381.388 30.2084 381.388 31.2471V35.5597C381.388 36.5984 380.482 37.4462 379.372 37.4462Z" fill="#E8BFC5"/>
<path fill-rule="evenodd" clip-rule="evenodd" d="M363.386 37.4462H358.778C357.666 37.4462 356.76 36.5972 356.76 35.5597V31.2471C356.76 30.2084 357.668 29.3607 358.778 29.3607H363.386C364.494 29.3607 365.402 30.2084 365.402 31.2471V35.5597C365.404 36.5984 364.494 37.4462 363.386 37.4462Z" fill="white"/>
<path fill-rule="evenodd" clip-rule="evenodd" d="M347.402 37.4462H342.792C341.683 37.4462 340.776 36.5972 340.776 35.5597V31.2471C340.776 30.2084 341.684 29.3607 342.792 29.3607H347.402C348.512 29.3607 349.418 30.2084 349.418 31.2471V35.5597C349.418 36.5984 348.512 37.4462 347.402 37.4462Z" fill="#E8BFC5"/>
<path fill-rule="evenodd" clip-rule="evenodd" d="M378.793 21.1384H374.183C373.073 21.1384 372.167 20.2906 372.167 19.2532V14.9393C372.167 13.9019 373.075 13.0541 374.183 13.0541H378.793C379.902 13.0541 380.807 13.9019 380.807 14.9393V19.2532C380.807 20.2906 379.902 21.1384 378.793 21.1384Z" fill="white"/>
<path fill-rule="evenodd" clip-rule="evenodd" d="M362.808 21.1384H358.197C357.087 21.1384 356.182 20.2906 356.182 19.2532V14.9393C356.182 13.9019 357.088 13.0541 358.197 13.0541H362.808C363.918 13.0541 364.823 13.9019 364.823 14.9393V19.2532C364.824 20.2906 363.918 21.1384 362.808 21.1384Z" fill="#E8BFC5"/>
<path fill-rule="evenodd" clip-rule="evenodd" d="M346.824 21.1383H342.214C341.103 21.1383 340.198 20.2905 340.198 19.253V14.9392C340.198 13.9017 341.104 13.054 342.214 13.054H346.824C347.932 13.054 348.838 13.9017 348.838 14.9392V19.253C348.838 20.2905 347.932 21.1383 346.824 21.1383Z" fill="white"/>
<path fill-rule="evenodd" clip-rule="evenodd" d="M127.881 413.174H132.491C133.601 413.174 134.507 412.325 134.507 411.289V406.974C134.507 405.935 133.601 405.089 132.491 405.089H127.881C126.773 405.089 125.867 405.937 125.867 406.974V411.289C125.867 412.325 126.771 413.174 127.881 413.174Z" fill="#E8BFC5"/>
<path fill-rule="evenodd" clip-rule="evenodd" d="M143.865 413.174H148.475C149.585 413.174 150.491 412.325 150.491 411.289V406.974C150.491 405.935 149.585 405.089 148.475 405.089H143.865C142.756 405.089 141.85 405.937 141.85 406.974V411.289C141.852 412.325 142.756 413.174 143.865 413.174Z" fill="white"/>
<path fill-rule="evenodd" clip-rule="evenodd" d="M159.851 413.174H164.461C165.571 413.174 166.477 412.325 166.477 411.289V406.974C166.477 405.935 165.571 405.089 164.461 405.089H159.851C158.742 405.089 157.836 405.937 157.836 406.974V411.289C157.836 412.325 158.741 413.174 159.851 413.174Z" fill="#E8BFC5"/>
<path fill-rule="evenodd" clip-rule="evenodd" d="M175.835 413.174H180.445C181.555 413.174 182.462 412.325 182.462 411.289V406.974C182.462 405.935 181.555 405.089 180.445 405.089H175.835C174.727 405.089 173.819 405.937 173.819 406.974V411.289C173.819 412.325 174.727 413.174 175.835 413.174Z" fill="white"/>
<path fill-rule="evenodd" clip-rule="evenodd" d="M191.823 413.174H196.43C197.54 413.174 198.446 412.325 198.446 411.289V406.974C198.446 405.935 197.539 405.089 196.43 405.089H191.823C190.713 405.089 189.807 405.937 189.807 406.974V411.289C189.807 412.325 190.713 413.174 191.823 413.174Z" fill="#E8BFC5"/>
<path fill-rule="evenodd" clip-rule="evenodd" d="M160.43 396.867H165.039C166.149 396.867 167.055 396.018 167.055 394.981V390.667C167.055 389.629 166.148 388.783 165.039 388.783H160.43C159.322 388.783 158.414 389.63 158.414 390.667V394.981C158.413 396.019 159.322 396.867 160.43 396.867Z" fill="white"/>
<path fill-rule="evenodd" clip-rule="evenodd" d="M176.416 396.867H181.025C182.135 396.867 183.039 396.018 183.039 394.981V390.667C183.039 389.629 182.133 388.783 181.025 388.783H176.416C175.307 388.783 174.4 389.63 174.4 390.667V394.981C174.399 396.019 175.306 396.867 176.416 396.867Z" fill="#E8BFC5"/>
<path fill-rule="evenodd" clip-rule="evenodd" d="M192.4 396.867H197.009C198.118 396.867 199.024 396.018 199.024 394.981V390.667C199.024 389.629 198.118 388.783 197.009 388.783H192.4C191.291 388.783 190.385 389.63 190.385 390.667V394.981C190.383 396.019 191.291 396.867 192.4 396.867Z" fill="white"/>
<path fill-rule="evenodd" clip-rule="evenodd" d="M87.2401 327.313C87.2401 326.694 87.7769 326.192 88.4364 326.192C89.0984 326.192 89.6352 326.694 89.6352 327.313V332.354C89.6352 332.974 89.0984 333.476 88.4364 333.476C87.7757 333.476 87.2401 332.974 87.2401 332.354V327.313ZM79.075 331.405C78.607 330.969 78.607 330.258 79.075 329.819C79.543 329.381 80.3013 329.381 80.7693 329.819L84.5797 333.386C85.0465 333.824 85.0465 334.534 84.5797 334.972C84.1117 335.409 83.3534 335.409 82.8841 334.972L79.075 331.405ZM76.3946 339.703C75.7338 339.703 75.197 339.2 75.197 338.582C75.197 337.962 75.7338 337.46 76.3946 337.46H81.7829C82.4449 337.46 82.9817 337.962 82.9817 338.582C82.9817 339.2 82.4449 339.703 81.7829 339.703H76.3946ZM80.7693 347.343C80.3013 347.781 79.543 347.781 79.075 347.343C78.607 346.905 78.607 346.196 79.075 345.757L82.8841 342.191C83.3534 341.755 84.1117 341.755 84.5797 342.191C85.0465 342.628 85.0465 343.34 84.5797 343.776L80.7693 347.343ZM89.6365 349.85C89.6365 350.469 89.0996 350.972 88.4377 350.972C87.7769 350.972 87.2414 350.469 87.2414 349.85V344.808C87.2414 344.192 87.7782 343.687 88.4377 343.687C89.0996 343.687 89.6365 344.192 89.6365 344.808V349.85ZM97.8003 345.758C98.2671 346.196 98.2671 346.906 97.8003 347.344C97.3323 347.782 96.574 347.782 96.106 347.344L92.2956 343.777C91.8276 343.342 91.8276 342.631 92.2956 342.192C92.7624 341.756 93.5219 341.756 93.9887 342.192L97.8003 345.758ZM100.481 337.46C101.143 337.46 101.678 337.962 101.678 338.582C101.678 339.2 101.141 339.703 100.481 339.703H95.0924C94.4317 339.703 93.8948 339.2 93.8948 338.582C93.8948 337.962 94.4317 337.46 95.0924 337.46H100.481ZM96.106 329.82C96.574 329.383 97.3311 329.383 97.8003 329.82C98.2671 330.258 98.2671 330.969 97.8003 331.406L93.9899 334.973C93.5232 335.411 92.7636 335.411 92.2969 334.973C91.8288 334.535 91.8288 333.826 92.2969 333.387L96.106 329.82Z" fill="white"/>
<path fill-rule="evenodd" clip-rule="evenodd" d="M210.045 30.5681C210.045 29.9498 210.581 29.4474 211.243 29.4474C211.904 29.4474 212.441 29.9498 212.441 30.5681V35.6102C212.441 36.2297 211.904 36.732 211.243 36.732C210.581 36.732 210.045 36.2297 210.045 35.6102V30.5681ZM201.879 34.6617C201.413 34.2238 201.413 33.5142 201.879 33.0763C202.347 32.6383 203.107 32.6383 203.575 33.0763L207.385 36.6418C207.853 37.0798 207.853 37.7894 207.385 38.2273C206.917 38.6641 206.159 38.6641 205.691 38.2273L201.879 34.6617ZM199.2 42.958C198.538 42.958 198.001 42.4557 198.001 41.8374C198.001 41.2191 198.538 40.7156 199.2 40.7156H204.589C205.251 40.7156 205.787 41.218 205.787 41.8374C205.787 42.4557 205.251 42.958 204.589 42.958H199.2ZM203.574 50.5985C203.107 51.0353 202.346 51.0353 201.878 50.5985C201.411 50.1606 201.411 49.451 201.878 49.0131L205.69 45.4487C206.157 45.0107 206.915 45.0107 207.384 45.4487C207.852 45.8854 207.852 46.5962 207.384 47.0341L203.574 50.5985ZM212.441 53.1068C212.441 53.725 211.904 54.2285 211.243 54.2285C210.581 54.2285 210.045 53.725 210.045 53.1068V48.0646C210.045 47.4463 210.581 46.944 211.243 46.944C211.904 46.944 212.441 47.4463 212.441 48.0646V53.1068ZM220.607 49.0131C221.074 49.4498 221.074 50.1606 220.607 50.5985C220.139 51.0353 219.381 51.0353 218.913 50.5985L215.103 47.033C214.636 46.595 214.636 45.8854 215.103 45.4475C215.571 45.0095 216.329 45.0095 216.798 45.4475L220.607 49.0131ZM223.285 40.7168C223.947 40.7168 224.484 41.2191 224.484 41.8386C224.484 42.4568 223.947 42.9592 223.285 42.9592H217.898C217.236 42.9592 216.699 42.4568 216.699 41.8386C216.699 41.2203 217.236 40.7168 217.898 40.7168H223.285ZM218.912 33.0751C219.38 32.6372 220.138 32.6372 220.606 33.0751C221.073 33.513 221.073 34.2238 220.606 34.6606L216.796 38.2262C216.328 38.6629 215.569 38.6629 215.1 38.2262C214.633 37.7882 214.633 37.0786 215.1 36.6407L218.912 33.0751Z" fill="white"/>
<path fill-rule="evenodd" clip-rule="evenodd" d="M539.6 177.485C539.6 176.866 540.138 176.363 540.799 176.363C541.458 176.363 541.995 176.866 541.995 177.485V182.527C541.995 183.146 541.458 183.648 540.799 183.648C540.138 183.648 539.6 183.146 539.6 182.527V177.485ZM531.435 181.579C530.967 181.141 530.967 180.431 531.435 179.993C531.902 179.555 532.66 179.555 533.128 179.993L536.937 183.558C537.405 183.996 537.405 184.705 536.937 185.143C536.471 185.581 535.711 185.581 535.243 185.143L531.435 181.579ZM528.756 189.875C528.094 189.875 527.557 189.374 527.557 188.753C527.557 188.135 528.094 187.633 528.756 187.633H534.144C534.804 187.633 535.342 188.134 535.342 188.753C535.342 189.373 534.804 189.875 534.144 189.875H528.756ZM533.129 197.516C532.661 197.953 531.903 197.953 531.436 197.516C530.968 197.078 530.968 196.368 531.436 195.93L535.246 192.366C535.712 191.928 536.472 191.928 536.94 192.366C537.408 192.804 537.408 193.513 536.94 193.951L533.129 197.516ZM541.995 200.024C541.995 200.643 541.458 201.144 540.799 201.144C540.138 201.144 539.6 200.642 539.6 200.024V194.982C539.6 194.363 540.138 193.86 540.799 193.86C541.458 193.86 541.995 194.362 541.995 194.982V200.024ZM550.159 195.93C550.627 196.368 550.627 197.078 550.159 197.516C549.692 197.953 548.934 197.953 548.466 197.516L544.657 193.95C544.189 193.512 544.189 192.802 544.657 192.364C545.124 191.927 545.883 191.927 546.35 192.364L550.159 195.93ZM552.84 187.634C553.502 187.634 554.038 188.135 554.038 188.754C554.038 189.374 553.502 189.876 552.84 189.876H547.453C546.792 189.876 546.256 189.375 546.256 188.754C546.256 188.136 546.792 187.634 547.453 187.634H552.84ZM548.466 179.993C548.934 179.555 549.692 179.555 550.159 179.993C550.627 180.431 550.627 181.14 550.159 181.579L546.35 185.144C545.883 185.582 545.124 185.582 544.657 185.144C544.189 184.708 544.189 183.997 544.657 183.559L548.466 179.993Z" fill="white"/>
<path fill-rule="evenodd" clip-rule="evenodd" d="M188.314 174.03C185.363 171.269 180.533 171.269 177.582 174.03L176.296 175.235L175.008 174.03C172.057 171.269 167.228 171.269 164.278 174.03C161.327 176.791 161.327 181.31 164.278 184.071L165.565 185.276L176.296 195.317L187.026 185.276L188.314 184.071C191.265 181.309 191.263 176.791 188.314 174.03Z" fill="white"/>
<path fill-rule="evenodd" clip-rule="evenodd" d="M388.844 240.942C385.894 238.181 381.063 238.181 378.113 240.942L376.826 242.146L375.539 240.942C372.588 238.181 367.759 238.181 364.808 240.942C361.858 243.703 361.858 248.223 364.808 250.984L366.096 252.188L376.826 262.229L387.558 252.188L388.844 250.984C391.796 248.223 391.796 243.705 388.844 240.942Z" fill="white"/>
<path fill-rule="evenodd" clip-rule="evenodd" d="M407.498 57.6586C404.548 54.8974 399.717 54.8974 396.767 57.6586L395.48 58.8635L394.193 57.6586C391.242 54.8974 386.413 54.8974 383.462 57.6586C380.513 60.4197 380.513 64.9384 383.462 67.6996L384.75 68.9045L395.48 78.9467L406.212 68.9045L407.498 67.6996C410.45 64.9384 410.45 60.4209 407.498 57.6586Z" fill="white"/>
<path fill-rule="evenodd" clip-rule="evenodd" d="M78.3604 134.18C80.5014 134.18 82.2458 132.546 82.2458 130.544C82.2458 128.541 80.5002 126.908 78.3604 126.908C76.2205 126.908 74.4736 128.542 74.4736 130.544C74.4749 132.546 76.2205 134.18 78.3604 134.18Z" fill="white"/>
<path fill-rule="evenodd" clip-rule="evenodd" d="M188.731 358.194C190.872 358.194 192.617 356.558 192.617 354.557C192.617 352.555 190.872 350.923 188.731 350.923C186.591 350.923 184.845 352.556 184.845 354.557C184.845 356.558 186.591 358.194 188.731 358.194Z" fill="white"/>
<path fill-rule="evenodd" clip-rule="evenodd" d="M443.67 394.56C445.81 394.56 447.554 392.926 447.554 390.922C447.554 388.919 445.809 387.287 443.67 387.287C441.529 387.287 439.783 388.92 439.783 390.922C439.783 392.926 441.53 394.56 443.67 394.56Z" fill="white"/>
<path fill-rule="evenodd" clip-rule="evenodd" d="M414.133 185.092C416.274 185.092 418.019 183.458 418.019 181.456C418.019 179.454 416.273 177.82 414.133 177.82C411.993 177.82 410.248 179.454 410.248 181.456C410.248 183.458 411.993 185.092 414.133 185.092Z" fill="white"/>
<path fill-rule="evenodd" clip-rule="evenodd" d="M444.775 333.001C444.775 332.381 445.312 331.879 445.972 331.879C446.634 331.879 447.171 332.381 447.171 333.001V338.043C447.171 338.661 446.634 339.164 445.972 339.164C445.312 339.164 444.775 338.661 444.775 338.043V333.001ZM436.611 337.092C436.143 336.656 436.143 335.946 436.611 335.508C437.078 335.07 437.837 335.07 438.305 335.508L442.116 339.075C442.582 339.51 442.582 340.221 442.116 340.659C441.648 341.097 440.889 341.097 440.421 340.659L436.611 337.092ZM433.929 345.391C433.269 345.391 432.732 344.888 432.732 344.269C432.732 343.651 433.269 343.147 433.929 343.147H439.319C439.978 343.147 440.516 343.651 440.516 344.269C440.516 344.888 439.978 345.391 439.319 345.391H433.929ZM438.304 353.031C437.837 353.469 437.078 353.469 436.61 353.031C436.142 352.593 436.142 351.883 436.61 351.447L440.419 347.88C440.887 347.442 441.645 347.442 442.113 347.88C442.58 348.318 442.58 349.029 442.113 349.466L438.304 353.031ZM447.171 355.538C447.171 356.158 446.634 356.66 445.972 356.66C445.312 356.66 444.775 356.158 444.775 355.538V350.497C444.775 349.878 445.312 349.375 445.972 349.375C446.634 349.375 447.171 349.878 447.171 350.497V355.538ZM455.336 351.446C455.803 351.881 455.803 352.592 455.336 353.03C454.868 353.468 454.11 353.468 453.642 353.03L449.833 349.463C449.366 349.028 449.366 348.317 449.833 347.878C450.301 347.44 451.059 347.44 451.526 347.878L455.336 351.446ZM458.015 343.147C458.677 343.147 459.213 343.651 459.213 344.269C459.213 344.888 458.677 345.391 458.015 345.391H452.627C451.966 345.391 451.429 344.888 451.429 344.269C451.429 343.651 451.966 343.147 452.627 343.147H458.015ZM453.641 335.508C454.109 335.07 454.867 335.07 455.335 335.508C455.802 335.946 455.802 336.656 455.335 337.092L451.525 340.659C451.058 341.097 450.3 341.097 449.832 340.659C449.365 340.221 449.365 339.51 449.832 339.075L453.641 335.508Z" fill="white"/>
<path fill-rule="evenodd" clip-rule="evenodd" d="M540.054 370.589C537.103 367.828 532.275 367.828 529.323 370.589L528.036 371.792L526.749 370.589C523.797 367.828 518.969 367.828 516.019 370.589C513.068 373.35 513.068 377.869 516.019 380.63L517.306 381.833L528.036 391.875L538.767 381.833L540.054 380.63C543.004 377.869 543.004 373.35 540.054 370.589Z" fill="white"/>
<path fill-rule="evenodd" clip-rule="evenodd" d="M298.461 119.883C285.457 127.677 270.71 136.442 270.71 136.442L270.334 130.81H257.468L256.522 143.608C256.522 143.608 255.947 149.802 260.914 152.38C265.881 154.956 273.887 152.287 277.849 150.751C281.81 149.213 306.577 138.396 306.577 138.396C320.608 132.561 311.464 112.088 298.461 119.883Z" fill="#D2887A"/>
<path fill-rule="evenodd" clip-rule="evenodd" d="M243.393 150.42C248.233 161.78 251.727 169.07 252.35 170.814C253.232 173.283 258.313 179.686 267.529 180.311C276.745 180.936 319.413 180.012 320.105 179.99C320.797 179.968 322.545 179.125 322.495 177.785C322.445 176.446 318.933 155.1 318.469 153.265C318.006 151.431 316.618 151.291 313.411 151.486C310.205 151.683 280.906 153.283 280.906 153.283C280.906 153.283 280.664 150.748 279.891 149.894C279.118 149.04 276.912 149.529 276.912 149.529L276.629 148.682L243.393 150.42Z" fill="#643954"/>
<path fill-rule="evenodd" clip-rule="evenodd" d="M234.798 410.156L234.52 411.893C234.52 411.893 233.336 419.311 233.008 420.735C232.679 422.16 233.436 425.481 233.436 425.481C233.436 425.481 236.304 428.685 239.159 429.151C242.013 429.619 255.078 430.143 255.292 429.502C255.508 428.861 252.446 423.791 252.446 423.791C252.446 423.791 250.941 420.902 252.34 412.078C252.324 405.611 234.798 410.156 234.798 410.156Z" fill="#D2887A"/>
<path fill-rule="evenodd" clip-rule="evenodd" d="M249.357 425.103L247.752 424.587C247.752 424.587 244.113 426.302 239.537 424.904C234.961 423.505 233.181 421.204 233.181 421.204C233.181 421.204 232.958 420.736 232.465 420.736C231.972 420.736 232.355 420.736 231.926 420.736C231.497 420.736 230.306 420.905 229.812 421.954C229.321 423.005 228.29 429.409 229.695 432.958C231.1 436.506 233.07 436.041 233.07 436.041C233.07 436.041 240.887 433.971 246.163 435.639C251.437 437.307 256.269 439.04 256.269 439.04C256.269 439.04 256.015 429.638 249.357 425.103Z" fill="#3F2329"/>
<path fill-rule="evenodd" clip-rule="evenodd" d="M284.962 438.078L285.544 436.548C285.544 436.548 285.544 435.383 285.544 434.69C285.544 433.994 285.219 431.903 282.962 431.903C280.706 431.903 276.321 431.903 274.319 431.903C272.317 431.903 261.481 426.969 253.155 420.903C253.155 420.903 252.568 420.286 251.693 420.734C250.819 421.184 248.166 423.085 247.895 423.285C247.625 423.485 247.594 424.301 247.752 424.585C247.91 424.867 255.618 438.537 255.618 438.537C255.618 438.537 278.306 441.206 284.962 438.078Z" fill="black"/>
<path fill-rule="evenodd" clip-rule="evenodd" d="M285.544 436.548C285.544 436.548 286.052 436.926 286.052 437.349C286.052 437.77 286.052 438.502 286.052 438.838C286.052 439.17 285.051 440.734 282.814 440.734C280.577 440.734 261.956 440.734 258.827 440.734C255.698 440.734 252.397 440.025 250.261 439.062C248.126 438.104 244.084 437.036 244.084 437.036C244.084 437.036 243.511 436.863 243.511 437.744C243.511 438.624 243.511 439.023 243.511 439.45C243.511 439.876 243.802 441.036 241.845 441.036C239.888 441.036 231.067 441.036 230.178 441.036C229.288 441.036 228.271 440.584 228.271 438.957C228.271 437.33 228.271 435.784 228.271 434.77C228.271 433.758 228.956 432.957 229.695 432.957C230.432 432.957 234.906 432.957 238.668 432.957C242.431 432.957 245.429 433.782 250.109 435.758C254.787 437.733 259.056 438.317 263.938 438.317C268.82 438.317 274.998 438.317 277.361 438.317C279.725 438.317 283.945 437.837 285.544 436.548Z" fill="#383260"/>
<path fill-rule="evenodd" clip-rule="evenodd" d="M228.532 410.156L228.266 411.893C228.266 411.893 227.131 419.311 226.817 420.735C226.501 422.16 227.227 425.481 227.227 425.481C227.227 425.481 229.98 428.685 232.717 429.151C235.452 429.619 247.988 430.143 248.194 429.502C248.4 428.861 245.462 423.791 245.462 423.791C245.462 423.791 244.022 420.902 245.362 412.078C245.347 405.611 228.532 410.156 228.532 410.156Z" fill="#E6B5A3"/>
<path fill-rule="evenodd" clip-rule="evenodd" d="M242.5 425.103L240.961 424.587C240.961 424.587 237.471 426.302 233.081 424.904C228.691 423.505 226.984 421.204 226.984 421.204C226.984 421.204 226.772 420.736 226.297 420.736C225.826 420.736 226.191 420.736 225.781 420.736C225.369 420.736 224.225 420.905 223.753 421.954C223.28 423.005 222.291 429.409 223.64 432.958C224.987 436.506 226.877 436.041 226.877 436.041C226.877 436.041 234.376 433.971 239.437 435.639C244.497 437.307 249.131 439.04 249.131 439.04C249.131 439.04 248.887 429.638 242.5 425.103Z" fill="#12101E"/>
<path fill-rule="evenodd" clip-rule="evenodd" d="M276.657 438.078L277.215 436.548C277.215 436.548 277.215 435.383 277.215 434.69C277.215 433.994 276.905 431.903 274.739 431.903C272.575 431.903 268.368 431.903 266.447 431.903C264.527 431.903 254.13 426.969 246.143 420.903C246.143 420.903 245.58 420.286 244.741 420.734C243.903 421.184 241.358 423.085 241.099 423.285C240.838 423.485 240.808 424.301 240.96 424.585C241.114 424.867 248.505 438.537 248.505 438.537C248.505 438.537 270.272 441.206 276.657 438.078Z" fill="black"/>
<path fill-rule="evenodd" clip-rule="evenodd" d="M277.214 436.548C277.214 436.548 277.702 436.926 277.702 437.349C277.702 437.77 277.702 438.502 277.702 438.838C277.702 439.17 276.742 440.734 274.596 440.734C257.758 440.734 240.92 441.037 224.1 441.037C223.247 441.037 222.272 440.585 222.272 438.958C222.272 437.331 222.272 435.786 222.272 434.772C222.272 433.759 222.93 432.958 223.638 432.958C224.345 432.958 228.638 432.958 232.247 432.958C235.855 432.958 238.734 433.783 243.222 435.759C247.708 437.734 251.807 438.318 256.489 438.318C261.172 438.318 267.099 438.318 269.366 438.318C271.634 438.316 275.681 437.837 277.214 436.548Z" fill="#4F4E51"/>
<path fill-rule="evenodd" clip-rule="evenodd" d="M326.819 89.8622C326.708 90.3704 326.563 90.8997 326.372 91.4524C323.758 99.0485 323.187 99.9337 325.477 103.362C327.765 106.791 331.353 113.027 323.347 120.676C315.339 128.324 321.965 131.848 320.624 136.138C319.282 140.427 311.453 139.228 309.382 141.619C307.309 144.01 307.283 148.67 301.368 147.684C295.451 146.697 291.72 137.038 295.743 129.772C299.765 122.506 300.215 120.935 298.328 119.653C296.442 118.371 289.639 110.908 300.338 99.8564C304.701 95.347 306.472 92.1128 307.036 89.8622H326.819Z" fill="#383260"/>
<path fill-rule="evenodd" clip-rule="evenodd" d="M307.046 99.3913C309.558 98.9405 310.04 99.9148 311.173 101.537C313.446 104.785 318.448 112.068 318.448 112.068H335.636L321.411 85.6758L308.173 92.5166L307.046 99.3913Z" fill="#E6B5A3"/>
<path fill-rule="evenodd" clip-rule="evenodd" d="M307.046 99.3913C308.482 99.1337 309.255 99.3422 309.864 99.8691L323.355 96.8398L324.957 92.2567L321.409 85.6747L308.171 92.5154L307.046 99.3913Z" fill="#D2887A"/>
<path fill-rule="evenodd" clip-rule="evenodd" d="M261.656 111.785C261.656 111.785 266.498 115.575 267.584 116.731C268.67 117.887 278.006 150.011 278.402 154.263C278.796 158.514 277.652 182.717 277.652 182.717C277.652 182.717 283.933 229.51 284.525 233.948C285.118 238.385 269.312 248.554 269.312 248.554L261.656 111.785Z" fill="#714360"/>
<path fill-rule="evenodd" clip-rule="evenodd" d="M379.941 401.21C360.974 370.149 342.445 267.14 343.236 237.559C344.027 207.977 326.026 191.286 326.026 191.286C310.763 161.056 349.753 133.875 339.978 114.242C338.036 110.342 333.685 108.449 333.685 108.449C334.208 110.053 332.076 110.266 326.347 110.451C320.616 110.636 315.987 112.169 315.987 112.169C315.987 112.169 305.894 122.559 304.806 123.577C303.722 124.593 288.309 131.805 286.333 134.947C284.357 138.09 288.309 152.141 288.111 159.814C287.913 167.487 286.029 181.921 285.443 189.673C284.857 197.427 276.157 243.66 276.947 275.829C277.738 308 267.817 374.771 263.866 394.737C263.866 394.737 263.371 396.771 264.161 398.62C264.952 400.467 270.087 402.225 270.087 402.225C270.087 402.225 264.357 432.822 263.665 435.134C262.973 437.446 265.246 441.421 268.802 442.623C272.359 443.825 298.241 448.539 318.197 444.101C318.197 444.101 322.543 442.438 322.345 437.631C322.345 437.631 344.277 438.186 354.947 432.639C354.947 432.639 356.528 432.085 356.528 428.387C356.528 424.688 355.738 421.731 355.738 421.731C355.738 421.731 371.938 415.074 379.446 404.721C379.446 404.721 380.731 403.611 379.941 401.21Z" fill="white"/>
<path fill-rule="evenodd" clip-rule="evenodd" d="M323.054 182.735C320.736 171.029 325.365 159.866 330.576 149.525L325.708 144.612C325.708 144.612 324.78 153.3 324.383 155.058C323.987 156.813 302.057 173.454 302.057 173.454L306.666 180.894L323.054 182.735Z" fill="#E3E1F1"/>
<path fill-rule="evenodd" clip-rule="evenodd" d="M323.334 184.001C323.005 182.635 322.773 181.278 322.629 179.928L286.148 182.133C285.856 184.961 285.601 187.565 285.442 189.673C285.327 191.209 284.89 194.258 284.273 198.405L309.493 198.715C309.493 198.715 312.555 198.715 311.766 195.571C310.975 192.428 309.986 190.117 309.986 190.117L323.028 186.604L323.334 184.001Z" fill="#E3E1F1"/>
<path fill-rule="evenodd" clip-rule="evenodd" d="M285.943 140.918C286.428 145.9 287.835 152.719 288.081 157.806C299.327 157.796 309.051 147.547 309.051 147.547L327.525 128.966L329.898 137.656C329.898 137.656 330.59 128.505 328.909 126.655C327.231 124.806 307.967 135.622 307.967 135.622L285.943 140.918Z" fill="#E3E1F1"/>
<path fill-rule="evenodd" clip-rule="evenodd" d="M309.592 186.959C313.853 187.461 319.934 187.752 322.83 183.984C323.691 182.866 327.012 175.971 326.382 171.806C326.232 170.813 323.365 170.073 322.866 169.749C322.866 169.749 319.669 170.459 319.127 170.873C318.957 171.003 321.365 168.763 321.316 167.785C321.272 166.93 319.098 167.809 318.151 167.956C317.518 168.055 315.315 167.956 313.385 168.766C311.017 169.761 309.353 171.629 308.984 172.46C307.1 176.713 309.592 186.959 309.592 186.959Z" fill="#E6B5A3"/>
<path fill-rule="evenodd" clip-rule="evenodd" d="M302.33 170.167C302.33 170.167 309.633 169.827 310.32 169.744C311.008 169.661 311.39 170.243 311.722 170.827C312.054 171.411 314.309 189.116 314.309 189.116C314.309 189.116 314.63 190.302 313.375 190.832C312.119 191.362 305.171 192.609 305.171 192.609L302.33 170.167Z" fill="white"/>
<path fill-rule="evenodd" clip-rule="evenodd" d="M271.28 222.805C271.28 222.805 271.985 243.79 270.995 248.043C270.005 252.295 255.641 403.9 255.28 413.145C255.28 413.145 255.091 415.179 252.524 415.179C249.956 415.179 236.322 415.179 236.322 415.179C236.322 415.179 234.283 415.085 233.995 412.13C233.706 409.171 235.369 347.788 235.299 345.939C235.229 344.09 233.955 343.166 233.811 341.686C233.666 340.209 235.65 338.822 236.132 337.528C236.615 336.235 222.801 244.806 223.431 233.344C224.059 221.881 271.28 222.805 271.28 222.805Z" fill="#462A3C"/>
<path fill-rule="evenodd" clip-rule="evenodd" d="M271.279 222.805C271.279 222.805 271.191 243.79 270.04 248.043C268.89 252.295 248.794 403.9 248.086 413.145C248.086 413.145 247.821 415.179 245.253 415.179C242.685 415.179 229.05 415.179 229.05 415.179C229.05 415.179 227.016 415.085 226.837 412.13C226.659 409.171 230.645 347.788 230.645 345.939C230.645 344.09 229.405 343.166 229.317 341.686C229.228 340.209 231.264 338.822 231.796 337.528C232.326 336.235 221.97 244.806 223.033 233.344C224.094 221.881 271.279 222.805 271.279 222.805Z" fill="black"/>
<path fill-rule="evenodd" clip-rule="evenodd" d="M272.535 218.325C272.535 218.325 275.455 209.728 275.957 208.296C276.46 206.864 275.19 200.762 275.19 200.762C275.19 200.762 268.107 214.166 268.066 214.72C268.024 215.275 270.253 219.804 272.535 218.325Z" fill="#C8C4E1"/>
<path fill-rule="evenodd" clip-rule="evenodd" d="M265.753 225.952L272.528 226.055C272.528 226.055 273.858 226.044 273.858 224.195C273.858 222.345 273.899 218.093 273.899 218.093C273.899 218.093 273.778 217.122 272.885 216.892C271.994 216.661 267.901 217.4 267.901 217.4L265.753 225.952Z" fill="#C8C4E1"/>
<path fill-rule="evenodd" clip-rule="evenodd" d="M264.323 116.843L270.795 148.346L239.577 121.538L250.346 98.3351L264.077 113.126L264.323 116.843Z" fill="#E3E1F1"/>
<path fill-rule="evenodd" clip-rule="evenodd" d="M263.501 110.957L268.033 98.6313L269.45 86.7542C269.45 86.7542 263.098 82.2706 262.258 81.1184C261.418 79.965 251.294 76.239 251.294 76.239L246.233 85.1769L242.748 96.3795L249.623 103.131L263.501 110.957Z" fill="#E6B5A3"/>
<path fill-rule="evenodd" clip-rule="evenodd" d="M266.131 103.806L268.033 98.6315L269.449 86.7544C269.449 86.7544 263.097 82.2708 262.258 81.1186C261.576 80.1818 254.781 77.553 252.242 76.594C251.71 76.861 251.172 77.1326 250.631 77.4055L246.233 85.176L245.783 86.6221L266.131 103.806Z" fill="#D3857F"/>
<path fill-rule="evenodd" clip-rule="evenodd" d="M284.588 61.0098C284.982 62.2276 288.146 66.1995 286.378 71.9348C284.328 78.5824 283.936 81.6702 286.231 83.9747C286.231 83.9747 286.657 84.5812 286.169 85.3272C285.681 86.0719 284.038 87.1585 282.192 87.1808C280.942 88.4571 279 92.1258 278.281 93.3951C275.999 97.4291 274.637 99.4115 269.607 98.8963C264.571 98.3787 251.975 93.2077 253.1 83.0438C254.225 72.8798 255.427 73.196 255.427 73.196C255.427 73.196 272.558 57.7475 273.636 57.6456C274.714 57.5449 284.419 55.5624 284.419 55.5624L284.588 61.0098Z" fill="#E6B5A3"/>
<path fill-rule="evenodd" clip-rule="evenodd" d="M280.047 90.1866C279.954 90.4805 279.872 90.7815 279.794 91.0812C279.744 91.0976 278.967 90.922 278.912 90.9255C277.189 91.0391 275.266 90.3599 274.239 89.0262C274.048 88.7791 274.108 88.4278 274.373 88.2487C274.639 88.0707 275.013 88.1269 275.203 88.374C276.029 89.4454 278.21 90.0496 279.566 89.9993C279.755 89.9899 279.929 90.0637 280.047 90.1866Z" fill="#D2887A"/>
<path fill-rule="evenodd" clip-rule="evenodd" d="M276.312 97.3377C274.867 98.5227 272.674 99.2089 269.607 98.8951C267.924 98.7217 265.395 98.0274 262.817 96.8014C262.01 95.1819 261.198 94.5684 261.71 91.4325C262.222 88.2978 265.662 83.9138 268.427 82.4969C270 85.58 271.573 88.6644 273.145 91.7475C274.257 89.5145 274.172 87.7229 276.461 88.2896C276.461 88.2896 276.547 94.8892 276.312 97.3377Z" fill="#DC9784"/>
<path fill-rule="evenodd" clip-rule="evenodd" d="M258.585 75.656C264.18 74.608 263.748 73.4651 265.167 69.1571C270.708 69.0775 273.973 66.0751 275.776 63.4393C277.757 64.2602 280.932 63.3562 280.095 60.7227L285.138 63.3152C304.339 66.3866 296.768 23.0879 285.367 45.362C285.367 45.362 273.546 32.6184 258.902 33.7905C253.362 34.1957 250.199 38.2894 248.505 41.7144C247.492 38.2659 244.203 37.0399 243.218 40.4732C242.463 43.1079 243.481 45.6957 244.456 47.3889C228.566 55.1676 246.59 81.5213 246.272 84.7906C246.248 85.0365 246.233 85.1771 246.233 85.1771L246.652 85.0471L250.216 81.2766L258.585 75.656Z" fill="#443E71"/>
<path fill-rule="evenodd" clip-rule="evenodd" d="M244.004 88.9755C244.004 88.9755 246.1 88.9965 247.065 89.849C248.03 90.7026 263.747 108.214 264.967 110.466C266.185 112.717 264.323 116.843 264.323 116.843C264.323 116.843 250.823 101.254 238.624 96.2167C238.624 96.2167 242.704 89.4193 244.004 88.9755Z" fill="white"/>
<path fill-rule="evenodd" clip-rule="evenodd" d="M258.585 75.6557C257.826 64.0456 247.091 66.2892 246.592 73.2916C246.091 80.2939 253.099 83.0422 253.099 83.0422L259.292 80.5164L258.585 75.6557Z" fill="#E6B5A3"/>
<path fill-rule="evenodd" clip-rule="evenodd" d="M272.785 79.6184C270.833 78.8947 268.623 79.787 267.847 81.6125C267.073 83.4392 268.028 85.5083 269.979 86.232C271.931 86.9568 274.142 86.0645 274.916 84.2378C275.691 82.4123 274.736 80.3432 272.785 79.6184Z" fill="#D2887A"/>
<path fill-rule="evenodd" clip-rule="evenodd" d="M277.063 71.2521C278.672 70.957 280.422 71.142 281.643 72.2685C281.905 72.512 282.331 72.5097 282.592 72.2614C282.851 72.0144 282.848 71.6174 282.585 71.375C281.113 70.0155 278.742 69.5835 276.767 70.0296C276.409 70.1069 276.182 70.4453 276.265 70.7825C276.346 71.1162 276.71 71.3294 277.063 71.2521Z" fill="#383260"/>
<path d="M256.206 75.0273C255.372 68.7217 249.49 70.0472 249.461 73.8587C249.433 77.6714 253.422 79.0976 253.422 79.0976" stroke="#D2887A" stroke-width="0.7087" stroke-miterlimit="2.6131" stroke-linecap="round" stroke-linejoin="round"/>
<path d="M254.963 71.8272C254.963 71.8272 251.289 73.8577 254.509 76.6352" stroke="#D2887A" stroke-width="0.7087" stroke-miterlimit="2.6131" stroke-linecap="round" stroke-linejoin="round"/>
<path fill-rule="evenodd" clip-rule="evenodd" d="M276.295 75.6384C277.388 76.5471 278.827 77.1454 280.311 76.7941C280.632 76.7192 280.958 76.9019 281.04 77.2016C281.12 77.5014 280.925 77.8059 280.604 77.8808C278.815 78.3047 276.779 77.6349 275.475 76.4557C275.235 76.245 275.225 75.8878 275.45 75.663C275.676 75.4405 276.058 75.43 276.295 75.6384Z" fill="#383260"/>
<path fill-rule="evenodd" clip-rule="evenodd" d="M271.094 59.4908C267.108 56.0224 261.267 51.2402 258.097 50.2929C253.453 48.9065 250.539 49.0915 248.169 49.0915C245.798 49.0915 244.456 47.3889 244.456 47.3889C243.481 45.6957 242.463 43.1079 243.219 40.4732C244.203 37.0388 247.492 38.2659 248.506 41.7144C250.2 38.2894 253.362 34.1957 258.902 33.7905C273.548 32.6184 285.367 45.362 285.367 45.362C296.768 23.0879 304.339 66.3878 285.138 63.3152L280.095 60.7227C280.932 63.3562 277.757 64.2602 275.776 63.4393C275.482 63.3175 275.215 63.1571 274.991 62.958C274.395 62.4299 272.945 61.1021 271.094 59.4908Z" fill="#383260"/>
<path fill-rule="evenodd" clip-rule="evenodd" d="M295.888 55.9356C281.362 58.0984 262.426 50.8595 253.563 35.6136C254.525 34.9719 255.612 34.4555 256.838 34.1323C267.44 50.4661 284.92 50.2846 295.837 43.2049C297.013 46.5 297.282 51.1733 296.23 55.2015C296.122 55.4509 296.01 55.6956 295.888 55.9356Z" fill="#443E71"/>
<path fill-rule="evenodd" clip-rule="evenodd" d="M238.623 96.2171C238.623 96.2171 222.025 109.974 218.667 119.588C215.308 129.202 224.398 177.457 224.398 180.416C224.398 183.375 223.409 183.791 223.114 184.809C222.819 185.825 224.004 186.518 224.25 187.395C224.498 188.275 222.177 191.001 221.682 192.202C221.188 193.405 223.609 196.919 223.904 197.658C224.2 198.396 203.949 230.244 202.863 231.353C201.776 232.462 215.016 245.13 247.024 251.6C247.024 251.6 256.506 253.079 259.174 246.794C261.841 240.507 278.538 206.952 278.143 191.236C277.747 175.521 274.093 157.496 273.106 152.873C272.115 148.249 251.074 90.6573 238.623 96.2171Z" fill="black"/>
<path fill-rule="evenodd" clip-rule="evenodd" d="M218.947 141.744C220.014 151.61 221.698 162.527 222.913 170.264L237.03 194.969C237.03 194.969 240.686 201.069 249.084 200.886C255.158 200.751 269.757 199.506 277.373 198.826C277.911 196.024 278.195 193.45 278.14 191.232C278.068 188.361 277.886 185.412 277.633 182.483L252.642 180.733L227.747 154.479L222.807 134.327L218.947 141.744Z" fill="black"/>
<path fill-rule="evenodd" clip-rule="evenodd" d="M238.472 96.0356C238.472 96.0356 242.629 106.467 243.32 108.5C243.369 108.643 243.545 108.968 243.825 109.447L249.374 109.944L246.85 114.386C254.271 126.421 271.25 154.437 277.164 177.743C277.164 177.743 276.614 151.485 262.784 123.567C248.952 95.6492 239.926 94.1316 239.926 94.1316L238.472 96.0356Z" fill="black"/>
<path fill-rule="evenodd" clip-rule="evenodd" d="M222.341 152.541C230.887 172.897 237.84 186.351 238.778 188.8C239.718 191.251 244.948 197.549 254.176 197.986C263.404 198.424 306.043 196.632 306.732 196.594C307.422 196.559 309.15 195.68 309.069 194.341C308.987 193.003 304.982 171.734 304.474 169.909C303.968 168.084 302.577 167.972 299.378 168.235C296.177 168.496 266.923 170.693 266.923 170.693C266.923 170.693 266.621 168.163 265.829 167.325C265.036 166.488 262.842 167.02 262.842 167.02C262.842 167.02 253.851 141.991 249.301 129.073C239.707 101.827 202.57 105.457 222.341 152.541Z" fill="black"/>
<path fill-rule="evenodd" clip-rule="evenodd" d="M315.21 91.7836C312.227 100.374 299.491 101.527 296.225 101.212C291.236 100.731 294.433 94.6876 292.647 90.0353C291.103 89.7016 289.859 87.4686 290.335 87.0388C290.81 86.6091 294.106 83.6231 294.505 81.3362C294.903 79.0494 294.099 83.6758 295.852 73.5927C297.605 63.5107 306.367 61.1828 306.367 61.1828L319.615 84.691C319.615 84.691 315.993 88.2402 315.21 91.7836Z" fill="#E6B5A3"/>
<path fill-rule="evenodd" clip-rule="evenodd" d="M301.711 84.4148C303.37 84.5752 304.579 85.964 304.409 87.5167C304.236 89.0717 302.753 90.2017 301.093 90.0413C299.432 89.882 298.223 88.4921 298.393 86.9383C298.566 85.3856 300.049 84.2544 301.711 84.4148Z" fill="#D2887A"/>
<path fill-rule="evenodd" clip-rule="evenodd" d="M301.552 77.6024C301.823 77.7721 302.192 77.7019 302.373 77.4466C302.555 77.1914 302.48 76.8447 302.207 76.6773C300.778 75.7675 298.751 75.4501 297.148 76.1187C296.852 76.2429 296.713 76.5731 296.847 76.8518C296.978 77.1316 297.333 77.2593 297.63 77.134C298.92 76.5977 300.405 76.9197 301.552 77.6024Z" fill="#383260"/>
<path fill-rule="evenodd" clip-rule="evenodd" d="M297.206 82.0402C296.955 81.8423 296.923 81.4899 297.134 81.2545C297.347 81.0203 297.725 80.991 297.974 81.1889C297.979 81.1913 299.474 82.3868 301.13 81.3295C301.401 81.1561 301.773 81.2206 301.958 81.4747C302.061 81.6152 302.087 81.7838 302.042 81.936L302.277 82.2545C302.418 82.4442 302.365 82.7053 302.164 82.8365C301.961 82.9676 301.682 82.9196 301.543 82.7299L301.369 82.4969L301.286 82.5355L301.413 82.8084C301.51 83.0215 301.406 83.2674 301.18 83.3587C300.952 83.4501 300.688 83.3529 300.591 83.1398L300.442 82.8142C300.395 82.8236 300.349 82.8318 300.304 82.8388L300.313 83.1433C300.322 83.3739 300.126 83.5672 299.88 83.5754C299.632 83.5824 299.427 83.4009 299.419 83.1702L299.409 82.8751C298.119 82.7697 297.208 82.0437 297.206 82.0402Z" fill="#383260"/>
<path fill-rule="evenodd" clip-rule="evenodd" d="M311.254 114.859C300.985 125.65 289.315 137.818 289.315 137.818C284.861 125.873 280.409 113.929 275.955 101.984C273.635 103.575 271.315 105.166 268.995 106.757L277.724 148.303C277.724 148.303 278.959 154.413 284.485 155.64C290.012 156.865 296.948 152.272 300.322 149.791C303.691 147.309 324.416 130.633 324.416 130.633C336.237 121.467 321.525 104.067 311.254 114.859Z" fill="#E6B5A3"/>
<path fill-rule="evenodd" clip-rule="evenodd" d="M317.313 80.6032C317.313 80.6032 303.46 79.9907 304.844 65.2916C304.844 65.2916 302.004 67.157 298.731 66.6863C298.731 66.6863 297.351 68.5645 296.528 70.9263C296.528 70.9263 293.185 63.9977 295.754 59.2834C298.322 54.5691 306.82 56.3256 306.82 56.3256C310.361 48.4871 344.883 48.9403 337.765 65.1675C351.77 71.2436 341.255 88.1043 351.074 95.3374C355.717 98.7566 363.422 105.229 356.901 118.54C350.381 131.853 360.656 133.517 361.05 139.616C361.444 145.718 350.775 147.567 349.292 151.541C347.811 155.517 350.083 161.526 341.982 162.82C333.881 164.114 324.298 153.3 325.88 142.208C327.459 131.114 327.261 128.895 324.199 128.063C321.136 127.232 308.686 120.575 316.985 101.718C325.285 82.8584 317.313 80.6032 317.313 80.6032Z" fill="#383260"/>
<path fill-rule="evenodd" clip-rule="evenodd" d="M313.125 86.9853C315.633 75.8307 327.993 79.1867 323.75 87.1094C321.46 91.3799 315.21 91.7839 315.21 91.7839L313.125 86.9853Z" fill="#E6B5A3"/>
<path d="M316.366 84.6712C319.27 79.9698 323.425 82.8468 322.088 85.855C320.754 88.8632 317.105 88.7403 317.105 88.7403" stroke="#D2887A" stroke-width="0.7087" stroke-miterlimit="2.6131" stroke-linecap="round" stroke-linejoin="round"/>
<path d="M318.484 82.5396C318.484 82.5396 320.65 85.2831 317.129 86.4646" stroke="#D2887A" stroke-width="0.7087" stroke-miterlimit="2.6131" stroke-linecap="round" stroke-linejoin="round"/>
<path fill-rule="evenodd" clip-rule="evenodd" d="M303.837 56.0144C311.379 66.751 327.92 74.6538 344.735 72.3271C344.299 71.1304 343.706 70.0004 342.894 68.9664C327.805 70.0203 318.261 61.6362 314.959 51.9535C310.952 52.717 307.77 54.2228 306.82 56.3259C306.82 56.3259 305.547 56.0624 303.837 56.0144Z" fill="#443E71"/>
<path fill-rule="evenodd" clip-rule="evenodd" d="M318.177 79.2077L317.313 80.6035C317.313 80.6035 314.374 81.6573 314.128 84.9396C314.128 84.9396 310.719 81.6117 312.745 78.1456C314.77 74.6784 318.229 78.977 318.229 78.977L318.177 79.2077Z" fill="#383260"/>
<path d="M266.924 170.692L259.11 170.981" stroke="#714360" stroke-width="0.7087" stroke-miterlimit="2.6131" stroke-linecap="round" stroke-linejoin="round"/>
<path d="M262.843 167.019L261.434 168.069" stroke="#714360" stroke-width="0.7087" stroke-miterlimit="2.6131" stroke-linecap="round" stroke-linejoin="round"/>
<path d="M223.98 186.842L228.288 192.428" stroke="#643954" stroke-width="0.7087" stroke-miterlimit="2.6131" stroke-linecap="round" stroke-linejoin="round"/>
<path d="M223.904 197.656L225.523 195.755" stroke="#643954" stroke-width="0.7087" stroke-miterlimit="2.6131" stroke-linecap="round" stroke-linejoin="round"/>
<path d="M249.373 109.944L251.037 106.966" stroke="#714360" stroke-width="0.7087" stroke-miterlimit="2.6131" stroke-linecap="round" stroke-linejoin="round"/>
<path d="M355.739 421.731C355.739 421.731 340.292 358.85 334.76 281.938" stroke="#E3E1F1" stroke-width="0.7087" stroke-miterlimit="2.6131" stroke-linecap="round" stroke-linejoin="round"/>
<path d="M317.669 187.276C317.669 187.276 330.415 196.243 336.539 215.286" stroke="#E3E1F1" stroke-width="0.7087" stroke-miterlimit="2.6131" stroke-linecap="round" stroke-linejoin="round"/>
<path d="M315.1 187.831C315.1 187.831 333.969 210.108 333.969 256.701" stroke="#E3E1F1" stroke-width="0.7087" stroke-miterlimit="2.6131" stroke-linecap="round" stroke-linejoin="round"/>
<path d="M322.346 437.631C322.346 437.631 320.139 371.33 319.743 342.856" stroke="#E3E1F1" stroke-width="0.7087" stroke-miterlimit="2.6131" stroke-linecap="round" stroke-linejoin="round"/>
<path d="M309.47 196.982C309.47 196.982 322.311 213.806 320.729 291.089" stroke="#E3E1F1" stroke-width="0.7087" stroke-miterlimit="2.6131" stroke-linecap="round" stroke-linejoin="round"/>
<path d="M270.088 402.226C270.088 402.226 281.216 315.492 281.61 270.75" stroke="#E3E1F1" stroke-width="0.7087" stroke-miterlimit="2.6131" stroke-linecap="round" stroke-linejoin="round"/>
<path d="M287.446 197.964C287.446 197.964 285.766 210.443 285.197 218.486" stroke="#E3E1F1" stroke-width="0.7087" stroke-miterlimit="2.6131" stroke-linecap="round" stroke-linejoin="round"/>
<path d="M299.391 197.674C299.391 197.674 302.552 251.57 301.367 273.016C300.182 294.462 298.208 346.968 298.208 346.968" stroke="#E3E1F1" stroke-width="0.7087" stroke-miterlimit="2.6131" stroke-linecap="round" stroke-linejoin="round"/>
<path d="M289.315 137.816C289.315 137.816 289.585 138.67 289.437 139.502" stroke="#D2887A" stroke-width="0.7087" stroke-miterlimit="2.6131" stroke-linecap="round" stroke-linejoin="round"/>
<path fill-rule="evenodd" clip-rule="evenodd" d="M268.166 105.977C264.542 101.07 261.462 90.9912 264.189 89.5169C264.728 89.2254 264.201 87.9115 264.465 87.3624C264.728 86.8167 265.685 86.8366 265.787 86.2617C266.002 85.0357 267.703 84.6516 267.642 83.6773C267.575 82.5743 268.953 82.6855 269.286 82.9291C270.75 84.0052 274.092 93.6516 274.092 93.6516C274.092 93.6516 275.147 87.1188 276.267 88.2898C277.386 89.4607 277.912 96.4865 277.912 98.0884C277.912 99.6903 276.727 108.504 276.727 108.504L269.681 109.305L268.166 105.977Z" fill="#E6B5A3"/>
<path d="M267.641 83.8342L271.554 93.4923" stroke="#D2887A" stroke-width="0.7087" stroke-miterlimit="2.6131" stroke-linecap="round" stroke-linejoin="round"/>
<path d="M265.918 86.2779L269.052 94.6011" stroke="#D2887A" stroke-width="0.7087" stroke-miterlimit="2.6131" stroke-linecap="round" stroke-linejoin="round"/>
<path d="M264.14 89.5867L266.746 96.5118" stroke="#D2887A" stroke-width="0.7087" stroke-miterlimit="2.6131" stroke-linecap="round" stroke-linejoin="round"/>
<path fill-rule="evenodd" clip-rule="evenodd" d="M297.864 92.5541C298.137 92.3855 298.505 92.4546 298.686 92.711C298.868 92.9663 298.793 93.3129 298.519 93.4815C297.091 94.3902 295.064 94.7075 293.461 94.0389C293.163 93.9148 293.025 93.5846 293.159 93.3059C293.291 93.026 293.646 92.8984 293.944 93.0225C295.233 93.5588 296.718 93.2368 297.864 92.5541Z" fill="#D2887A"/>
</svg>
